<?xml version="1.0" standalone="no"?>
<!DOCTYPE svg PUBLIC "-//W3C//DTD SVG 20010904//EN"
 "http://www.w3.org/TR/2001/REC-SVG-20010904/DTD/svg10.dtd">
<svg version="1.0" xmlns="http://www.w3.org/2000/svg"
 width="1500.000000pt" height="1200.000000pt" viewBox="0 0 1500.000000 1200.000000"
 preserveAspectRatio="xMidYMid meet">

<g transform="translate(0.000000,1200.000000) scale(0.100000,-0.100000)"
fill="#000000" stroke="none">
<path d="M3260 11996 c0 -2 8 -10 18 -17 15 -13 16 -12 3 4 -13 16 -21 21 -21
13z"/>
<path d="M7220 11968 c0 -18 7 -75 17 -125 l17 -93 31 0 c16 0 52 -12 79 -26
l49 -26 59 18 c58 17 59 17 111 -4 31 -13 74 -22 104 -22 29 0 76 -9 105 -21
35 -14 63 -18 85 -14 23 4 55 -2 104 -20 57 -20 81 -24 125 -19 l54 7 -16 25
c-13 20 -15 40 -9 116 7 110 18 136 56 136 46 0 61 -36 53 -133 -9 -114 -8
-113 -23 -131 -7 -9 -12 -16 -10 -16 2 0 40 -13 84 -28 73 -25 81 -30 92 -62
7 -19 12 -71 13 -115 0 -103 6 -121 41 -136 24 -9 40 -9 84 4 l55 16 56 -30
c34 -19 63 -28 75 -24 22 7 25 30 5 38 -13 5 -26 89 -30 190 -1 37 -7 52 -21
60 -29 15 -36 29 -29 59 5 25 3 26 -31 23 -41 -4 -63 14 -110 94 -16 28 -33
51 -36 51 -12 0 10 91 26 106 14 14 17 13 35 -8 11 -12 19 -28 20 -34 0 -6 7
-17 15 -24 8 -7 27 -34 42 -61 14 -27 30 -49 35 -49 4 0 8 46 8 103 0 56 3
126 6 155 7 51 6 52 -20 52 -23 0 -26 -4 -26 -33 0 -18 -7 -43 -16 -56 -14
-20 -22 -22 -58 -16 -22 3 -67 8 -100 10 -32 2 -78 12 -102 21 -24 9 -58 14
-76 12 -18 -3 -62 1 -98 9 -36 7 -83 11 -105 8 -23 -3 -66 1 -100 11 -44 11
-81 14 -136 9 -58 -5 -84 -3 -113 9 -53 22 -276 23 -276 2 0 -8 6 -21 13 -28
18 -19 77 -152 77 -173 0 -3 -13 -5 -28 -5 -29 0 -72 35 -72 59 0 6 -9 29 -20
51 -11 22 -20 46 -20 55 0 8 9 24 20 35 l20 20 -95 0 -95 0 0 -32z m461 -14
c11 -10 14 -27 12 -56 -2 -24 -5 -63 -6 -88 -2 -25 -6 -51 -11 -58 -8 -14 -56
-6 -69 12 -8 11 -1 164 9 199 6 20 37 16 65 -9z m240 -54 c21 -12 25 -57 12
-158 -7 -60 -28 -68 -51 -19 -16 34 -17 138 -2 167 12 23 15 24 41 10z m589
-325 c0 -8 5 -15 11 -15 6 0 9 -7 6 -15 -4 -8 -3 -17 2 -19 15 -9 21 -162 8
-190 -19 -41 -63 -36 -81 9 -8 19 -15 43 -15 52 0 10 -4 43 -9 73 -12 75 6
120 48 120 20 0 30 -5 30 -15z"/>
<path d="M2976 11961 c-5 -7 -5 -69 -1 -137 6 -100 10 -126 24 -133 22 -12
262 -50 336 -53 54 -3 60 -1 60 17 0 15 -5 19 -20 15 -62 -14 -262 14 -308 44
l-27 18 35 39 c40 45 39 40 21 84 -12 27 -21 34 -47 37 -32 3 -38 10 -56 57
-7 18 -12 21 -17 12z"/>
<path d="M4896 11932 c-6 -10 48 -72 63 -72 6 0 11 14 11 30 0 24 -6 33 -26
40 -31 12 -41 12 -48 2z"/>
<path d="M2160 11881 c0 -55 7 -61 70 -61 l38 0 -19 39 c-15 32 -63 71 -86 71
-1 0 -3 -22 -3 -49z"/>
<path d="M5480 11820 c0 -17 3 -18 25 -8 14 6 25 15 25 20 0 4 -11 8 -25 8
-18 0 -25 -5 -25 -20z"/>
<path d="M5781 11760 c29 -38 44 -39 44 -2 0 24 -4 27 -34 30 l-35 4 25 -32z"/>
<path d="M3723 11730 c-26 -11 -30 -42 -8 -60 8 -7 15 -18 15 -25 0 -8 6 -15
12 -17 7 -3 11 -18 10 -36 -1 -18 2 -32 8 -32 5 0 10 8 10 17 0 9 3 13 8 9 4
-4 7 -13 7 -19 0 -7 9 -13 20 -15 16 -3 18 -1 8 9 -16 16 -16 53 -1 95 9 27 9
37 -6 58 -17 27 -43 32 -83 16z"/>
<path d="M6700 11607 c0 -14 31 -47 43 -47 14 0 6 48 -9 54 -24 9 -34 7 -34
-7z"/>
<path d="M4633 11593 c-16 -3 -23 -12 -23 -26 0 -31 11 -44 44 -57 25 -9 33
-8 50 10 19 19 20 22 6 48 -16 27 -35 34 -77 25z"/>
<path d="M4075 11520 c-3 -5 -1 -10 4 -10 6 0 11 5 11 10 0 6 -2 10 -4 10 -3
0 -8 -4 -11 -10z"/>
<path d="M8780 11487 c0 -20 5 -70 11 -112 9 -56 9 -78 0 -89 -15 -18 3 -25
78 -32 80 -7 85 -1 70 80 -6 37 -9 89 -7 116 l5 48 -56 5 c-31 3 -66 9 -78 13
-21 6 -23 3 -23 -29z"/>
<path d="M5486 11502 c-3 -6 -6 -49 -5 -96 1 -96 8 -106 71 -106 l33 0 -37 22
c-45 26 -47 33 -12 50 42 20 56 48 41 78 -7 14 -21 26 -32 28 -11 2 -27 11
-37 19 -9 8 -18 10 -22 5z"/>
<path d="M9049 11458 c-5 -10 -8 -56 -6 -103 3 -58 1 -85 -7 -85 -6 0 -4 -5 4
-10 8 -6 38 -7 66 -4 28 3 67 1 87 -4 20 -6 37 -7 37 -2 0 4 -16 31 -35 60
-29 43 -35 61 -35 105 l0 53 -51 4 c-40 2 -53 -1 -60 -14z"/>
<path d="M4665 11430 c11 -5 29 -9 40 -9 17 -1 17 1 5 9 -8 5 -26 9 -40 9 -23
0 -23 -1 -5 -9z"/>
<path d="M6438 11303 c-18 -4 -26 -53 -10 -53 5 0 16 -16 25 -36 20 -41 29
-39 46 14 21 63 -2 91 -61 75z"/>
<path d="M5790 11270 c0 -5 9 -10 20 -10 11 0 20 5 20 10 0 6 -9 10 -20 10
-11 0 -20 -4 -20 -10z"/>
<path d="M7620 11169 c0 -29 35 -96 48 -91 21 7 13 40 -18 74 -21 24 -29 28
-30 17z"/>
<path d="M22 11088 c-5 -7 -12 -23 -16 -34 -6 -19 1 -25 61 -49 57 -23 77 -26
125 -21 56 7 57 6 85 -29 36 -46 53 -45 49 1 -2 35 -2 36 28 30 44 -9 82 -39
78 -64 -2 -15 4 -22 27 -27 35 -8 55 1 47 21 -7 19 11 27 58 26 67 -3 80 -25
77 -129 -1 -48 -7 -95 -12 -104 -8 -15 -27 -17 -159 -17 -160 0 -166 2 -172
53 -3 29 -5 30 -48 27 -25 -2 -52 -10 -61 -18 -15 -14 -67 -13 -161 1 -25 4
-28 1 -28 -21 0 -19 4 -25 15 -20 17 6 55 -13 55 -28 0 -4 -16 -5 -35 -2 -30
6 -35 4 -35 -12 0 -23 25 -32 88 -32 36 0 45 4 49 20 5 17 14 20 63 20 51 0
61 -3 79 -26 17 -22 21 -41 21 -110 0 -79 -1 -84 -26 -101 -23 -14 -33 -15
-83 -5 -32 7 -74 12 -94 12 -31 0 -35 -3 -32 -21 3 -15 1 -18 -8 -11 -7 5 -22
12 -35 15 -19 4 -22 1 -22 -28 0 -31 1 -32 53 -39 28 -3 71 -6 95 -6 35 0 42
3 42 19 0 27 13 33 55 25 47 -8 65 -44 65 -127 0 -40 5 -69 13 -75 16 -14 174
-35 203 -28 14 4 24 15 26 29 2 16 10 22 28 22 28 0 41 -32 19 -46 -11 -6 -10
-11 6 -23 24 -19 46 -20 42 -3 -1 6 10 13 25 15 21 3 30 11 39 39 l11 35 57
-7 c31 -4 68 -13 84 -20 26 -13 27 -13 27 15 0 31 -22 60 -46 60 -8 0 -28 -6
-43 -14 -34 -18 -111 -22 -175 -8 -26 5 -66 7 -87 5 -47 -7 -67 7 -62 44 4 21
14 33 46 47 23 10 47 18 52 16 58 -16 123 -4 127 23 2 14 14 24 34 29 17 4 37
15 45 24 20 24 -7 36 -68 29 -45 -4 -54 -2 -66 16 -20 28 -11 56 22 67 14 5
67 7 117 4 l92 -4 4 48 c3 27 3 52 1 57 -2 4 -39 7 -81 7 -87 0 -107 8 -98 37
10 32 85 30 122 -2 38 -33 50 -31 58 6 16 81 3 115 -38 99 -15 -5 -24 -15 -21
-20 3 -6 -1 -13 -10 -16 -19 -8 -85 21 -85 36 0 6 -11 15 -25 20 -31 12 -32
36 -4 66 20 21 21 26 8 68 -13 43 -15 46 -64 56 -75 16 -245 25 -245 13 0 -17
-56 -36 -82 -28 -13 4 -38 21 -57 37 -31 27 -34 28 -51 13 -25 -23 -106 -11
-113 16 -6 22 -58 27 -75 7z"/>
<path d="M893 10145 c0 -22 2 -30 4 -17 2 12 2 30 0 40 -3 9 -5 -1 -4 -23z"/>
<path d="M110 9548 c0 -21 7 -29 33 -37 38 -13 96 2 99 25 0 8 1 20 2 27 1 8
-19 12 -66 12 -67 0 -68 0 -68 -27z"/>
<path d="M2935 9560 c-92 -7 -52 -20 60 -20 44 0 240 -9 435 -20 195 -11 461
-24 590 -30 843 -36 1218 -50 1385 -49 169 1 187 2 159 14 -43 19 -201 33
-454 40 -118 3 -231 8 -250 11 -19 3 -141 7 -270 9 -390 8 -535 12 -760 23
-118 6 -222 10 -230 10 -28 -1 -575 13 -585 15 -5 1 -41 0 -80 -3z"/>
<path d="M5708 9455 c51 -61 172 -180 137 -135 -11 14 -58 63 -104 110 -67 68
-74 73 -33 25z"/>
<path d="M140 9439 c0 -6 -8 -8 -19 -4 -27 8 -39 -12 -51 -88 -14 -87 -24
-114 -49 -122 -21 -6 -31 -55 -11 -55 5 0 59 -7 121 -16 144 -20 154 -18 154
24 1 29 -2 32 -21 28 -13 -4 -35 -1 -49 4 -21 8 -35 7 -57 -4 -30 -16 -58 -12
-58 8 -1 6 -2 33 -4 60 -4 56 9 86 35 79 22 -6 59 50 52 78 -6 20 -43 27 -43
8z"/>
<path d="M2964 9310 c44 -4 186 -10 315 -13 158 -4 203 -3 136 3 -143 11 -551
21 -451 10z"/>
<path d="M3568 9283 c23 -2 61 -2 85 0 23 2 4 4 -43 4 -47 0 -66 -2 -42 -4z"/>
<path d="M5895 9260 c10 -11 20 -20 22 -20 2 0 -2 9 -9 20 -7 11 -17 20 -22
20 -5 0 -1 -9 9 -20z"/>
<path d="M334 9210 c6 -55 20 -70 70 -70 107 0 114 33 13 55 -16 3 -39 17 -51
30 -32 34 -36 32 -32 -15z"/>
<path d="M2818 9238 c9 -9 53 -13 150 -15 515 -10 1130 -26 1502 -38 1046 -35
1192 -38 1109 -21 -51 10 -523 27 -884 32 -209 2 -418 9 -465 14 -47 5 -184
12 -305 15 -121 3 -296 7 -390 10 -531 16 -730 17 -717 3z"/>
<path d="M2670 9150 c0 -9 103 -14 209 -10 26 1 47 -3 52 -11 6 -10 13 -10 33
-1 28 12 89 8 176 -12 49 -11 56 -16 64 -44 11 -35 41 -43 107 -30 20 4 56 4
80 0 l44 -8 -27 -18 c-33 -22 -37 -46 -7 -46 14 0 19 5 16 14 -9 22 21 56 50
56 18 0 24 4 19 15 -4 12 3 15 29 15 19 0 35 4 35 10 0 5 8 7 18 3 16 -5 16
-5 0 12 -13 14 -20 16 -31 7 -15 -13 -57 -5 -57 11 0 6 20 7 58 2 31 -4 71 -7
87 -6 113 4 770 -3 770 -8 0 -4 546 -3 550 0 4 5 -401 22 -830 35 -93 3 -282
9 -419 15 -337 12 -1026 12 -1026 -1z"/>
<path d="M2940 9095 c0 -10 10 -15 30 -15 32 0 40 14 14 24 -27 10 -44 7 -44
-9z"/>
<path d="M5053 9093 c32 -2 81 -2 110 0 29 2 3 3 -58 3 -60 0 -84 -1 -52 -3z"/>
<path d="M3520 9050 c-11 -7 -4 -10 25 -9 31 0 36 2 20 9 -26 11 -28 11 -45 0z"/>
<path d="M2 9008 c3 -40 5 -43 38 -48 20 -4 49 -16 66 -28 16 -12 74 -34 129
-48 55 -14 107 -28 115 -31 41 -16 151 20 177 57 13 18 26 20 133 20 114 0
153 10 120 30 -21 13 -404 56 -570 65 -52 2 -111 9 -130 15 -19 5 -45 10 -58
10 -21 0 -23 -4 -20 -42z"/>
<path d="M3224 8995 c-4 -8 -14 -15 -23 -15 -10 0 -12 -3 -5 -8 6 -4 15 -18
19 -31 4 -15 10 -19 14 -12 5 8 13 7 27 -4 18 -14 18 -14 -6 -15 l-25 0 27
-27 c26 -26 28 -26 47 -9 11 10 20 21 19 25 -3 14 15 41 23 35 5 -3 9 0 9 5 0
6 -13 11 -30 11 -20 0 -30 5 -30 15 0 9 -9 15 -21 15 -15 0 -19 5 -15 15 3 9
0 15 -10 15 -8 0 -17 -7 -20 -15z m48 -37 c-9 -9 -15 -9 -24 0 -9 9 -7 12 12
12 19 0 21 -3 12 -12z"/>
<path d="M3270 8996 c0 -9 30 -14 35 -6 4 6 -3 10 -14 10 -12 0 -21 -2 -21 -4z"/>
<path d="M3475 8960 c-3 -5 -1 -10 4 -10 6 0 11 5 11 10 0 6 -2 10 -4 10 -3 0
-8 -4 -11 -10z"/>
<path d="M1100 8865 c0 -8 7 -15 15 -15 8 0 15 7 15 15 0 8 -7 15 -15 15 -8 0
-15 -7 -15 -15z"/>
<path d="M0 8842 c0 -16 21 -20 213 -35 116 -9 270 -20 342 -23 97 -5 139 -11
167 -25 42 -21 74 -24 84 -8 10 17 -12 26 -100 39 -160 23 -293 33 -423 32
-111 -2 -140 1 -185 18 -67 25 -98 26 -98 2z"/>
<path d="M3275 8840 c3 -5 11 -10 16 -10 6 0 7 5 4 10 -3 6 -11 10 -16 10 -6
0 -7 -4 -4 -10z"/>
<path d="M3345 8830 c-3 -5 3 -10 15 -10 12 0 18 5 15 10 -3 6 -10 10 -15 10
-5 0 -12 -4 -15 -10z"/>
<path d="M155 8731 c-16 -6 -11 -11 27 -25 27 -11 48 -26 51 -37 7 -27 41 -23
57 6 12 22 12 28 -1 39 -17 16 -106 27 -134 17z"/>
<path d="M379 8709 c-28 -28 -21 -50 21 -65 76 -27 159 -7 134 32 -9 16 -90
51 -121 53 -7 1 -22 -8 -34 -20z"/>
<path d="M3758 8673 c7 -3 16 -2 19 1 4 3 -2 6 -13 5 -11 0 -14 -3 -6 -6z"/>
<path d="M2718 8613 c84 -2 219 -2 300 0 81 1 12 3 -153 3 -165 0 -231 -2
-147 -3z"/>
<path d="M406 8601 c-5 -7 1 -11 16 -11 13 0 84 -2 158 -5 164 -6 125 10 -51
21 -82 4 -118 3 -123 -5z"/>
<path d="M2617 8571 c-75 -5 -140 -10 -143 -13 -7 -8 1041 -17 1956 -17 432 0
821 -3 864 -7 78 -6 79 -6 61 12 -15 16 -38 19 -149 22 -285 7 -2459 10 -2589
3z"/>
<path d="M2428 8553 c7 -3 16 -2 19 1 4 3 -2 6 -13 5 -11 0 -14 -3 -6 -6z"/>
<path d="M2368 8543 c7 -3 16 -2 19 1 4 3 -2 6 -13 5 -11 0 -14 -3 -6 -6z"/>
<path d="M5425 8540 c11 -5 31 -8 45 -8 l25 0 -25 8 c-14 4 -34 8 -45 8 l-20
1 20 -9z"/>
<path d="M5577 8539 c12 -12 293 -92 299 -86 2 2 -47 18 -108 36 -62 18 -123
39 -135 47 -27 17 -73 20 -56 3z"/>
<path d="M6214 8258 c3 -29 9 -142 13 -250 6 -188 7 -198 26 -198 19 0 19 6
14 223 -6 250 -10 277 -40 277 -18 0 -19 -4 -13 -52z"/>
<path d="M10290 7999 c0 -5 5 -7 10 -4 6 3 10 8 10 11 0 2 -4 4 -10 4 -5 0
-10 -5 -10 -11z"/>
<path d="M10158 7961 c-19 -16 -43 -49 -56 -73 -24 -50 -67 -207 -82 -301 -18
-123 -87 -443 -108 -502 -11 -33 -23 -77 -27 -98 -11 -66 -24 -30 -22 63 2 72
5 90 17 90 13 1 13 2 0 9 -21 13 -713 28 -2050 47 -256 4 -476 8 -490 10 -14
1 -45 4 -70 5 -37 1 -32 3 30 10 41 5 197 6 345 2 149 -3 356 -7 460 -8 772
-11 1235 -20 1571 -30 162 -5 182 -4 188 10 9 24 7 35 -4 35 -18 0 -50 34 -50
53 0 10 5 27 11 39 6 11 13 35 15 54 3 27 1 34 -13 35 -12 1 -10 4 7 9 19 6
10 8 -35 9 -195 5 -399 12 -461 17 l-72 5 44 111 c24 61 45 113 48 115 3 3
116 14 253 24 136 11 250 23 254 27 4 4 10 21 13 37 l6 30 -70 2 c-44 1 -68
-1 -65 -7 4 -6 0 -12 -7 -15 -17 -5 -281 -25 -286 -21 -5 6 21 56 29 56 5 0
22 14 39 30 17 17 41 30 55 30 27 0 34 14 12 23 -8 3 -38 8 -69 12 -71 9 -113
-9 -164 -69 -50 -59 -186 -299 -208 -369 -5 -16 -18 -17 -148 -12 -79 3 -343
10 -588 15 -873 20 -866 19 -735 11 123 -9 440 -20 554 -21 96 0 68 -10 -42
-14 -53 -3 -102 -8 -108 -12 -8 -5 -9 -3 -4 7 8 12 6 12 -8 0 -9 -7 -17 -10
-17 -5 0 11 -52 15 -65 4 -5 -4 -23 -6 -40 -5 -32 2 -379 6 -405 5 -54 -4
-239 3 -236 9 3 4 24 8 48 10 76 4 53 11 -43 12 -52 1 -364 4 -694 6 -330 3
-622 5 -650 5 -27 1 -67 -1 -88 -4 -21 -3 -40 -1 -43 4 -3 5 -12 7 -20 4 -7
-3 -16 -1 -19 3 -6 11 -119 13 -358 7 -33 0 -61 2 -64 7 -4 6 -272 12 -338 7
-30 -2 -43 -2 -135 5 -47 4 -95 7 -107 7 -89 -3 -81 -3 -488 12 -232 9 -408
10 -434 1 -11 -3 -21 -3 -21 2 0 7 -58 10 -220 11 -73 0 -91 1 -175 5 -44 2
-97 -1 -118 -6 -25 -6 -41 -6 -46 0 -8 13 -81 11 -81 -2 0 -5 -5 -3 -10 5 -8
12 -45 15 -217 17 -427 4 -553 9 -565 21 -9 9 35 11 188 7 109 -2 348 -6 529
-10 182 -3 420 -8 530 -11 124 -3 194 -1 185 4 -8 5 -181 13 -385 16 -203 4
-595 11 -870 17 -547 11 -895 13 -903 4 -3 -3 5 -5 17 -5 12 0 19 -4 16 -10
-3 -5 -13 -10 -21 -10 -8 0 -28 -13 -45 -30 -29 -27 -30 -32 -20 -61 11 -33 3
-80 -24 -144 -14 -30 -5 -65 15 -65 6 0 10 -4 10 -10 0 -5 -9 -10 -20 -10 -23
0 -45 32 -55 80 -4 19 -12 46 -16 59 -9 22 -10 23 -35 6 -24 -15 -48 -16 -244
-10 -211 7 -219 8 -244 31 -21 21 -35 24 -96 24 -62 0 -74 -3 -98 -25 -15 -14
-30 -25 -34 -25 -14 0 -48 34 -48 47 0 9 -19 13 -67 13 -121 0 -398 21 -401
31 -2 5 -13 9 -25 9 -18 0 -19 2 -7 11 10 6 201 9 572 7 306 -2 560 1 564 5
14 14 -15 24 -84 30 -63 6 -86 19 -78 43 8 21 -10 33 -58 38 -53 6 -74 16 -35
16 13 0 30 9 36 19 9 14 27 20 65 24 72 7 127 21 108 29 -15 5 -322 -36 -338
-46 -4 -2 -93 -1 -197 3 -104 4 -210 4 -235 0 -25 -3 -56 -3 -69 2 -31 12
-141 18 -166 9 -19 -7 -18 -8 5 -19 20 -9 172 -39 347 -68 39 -6 63 -30 40
-39 -9 -3 -25 0 -37 6 -14 7 -43 9 -84 5 -139 -15 -413 44 -466 100 -13 14
-28 25 -35 25 -6 0 -32 -22 -58 -48 l-47 -48 0 -221 c0 -174 3 -227 15 -249
13 -25 13 -30 -1 -45 -13 -14 -15 -104 -14 -693 1 -507 5 -676 13 -676 8 0 8
-3 -1 -8 -10 -7 -12 -111 -10 -488 l3 -479 35 1 c39 1 169 11 245 20 27 3 106
9 175 14 69 5 181 16 250 24 69 8 151 16 184 17 79 4 86 -7 86 -133 l0 -98 30
0 c51 0 66 26 74 126 5 68 11 96 28 118 14 20 17 31 10 34 -7 2 -12 25 -12 56
0 62 -11 76 -63 76 -62 0 -77 -13 -77 -68 0 -26 -4 -53 -9 -60 -6 -10 -48 -13
-172 -13 -226 -1 -227 -1 -221 28 2 13 11 23 18 23 8 0 14 4 14 10 0 11 63 40
95 45 35 5 76 25 71 33 -3 5 -37 8 -76 6 -56 -2 -70 0 -70 11 0 8 4 15 10 15
6 0 6 9 0 24 -5 15 -5 27 1 33 7 7 5 16 -5 26 -9 9 -16 21 -16 27 0 6 -4 8
-10 5 -6 -3 -7 1 -4 9 4 10 1 16 -7 16 -9 0 -10 3 -4 8 28 20 37 42 25 57 -7
8 -9 22 -6 31 4 11 2 15 -8 11 -22 -9 -37 13 -20 30 28 28 13 33 -26 8 -22
-14 -40 -21 -40 -16 0 5 6 11 13 14 9 3 8 9 -4 23 -9 10 -14 25 -12 32 3 6 0
12 -6 12 -6 0 -11 -4 -11 -10 0 -5 -7 -7 -16 -3 -14 5 -13 8 7 20 23 14 24 14
2 8 -26 -7 -31 10 -7 19 9 4 14 9 11 12 -3 3 -15 1 -26 -6 -29 -15 -26 -4 5
25 15 14 22 25 16 25 -6 0 -14 -5 -17 -11 -5 -6 -12 -4 -20 8 -13 17 -14 17
-20 1 -4 -10 -11 -15 -16 -12 -5 3 -2 12 6 20 8 9 12 21 8 27 -4 6 0 8 9 4 12
-4 14 -1 11 14 -3 10 -10 19 -15 19 -5 0 -6 -5 -2 -12 5 -8 0 -9 -15 -5 -19 5
-20 3 -9 -10 11 -14 11 -15 -2 -11 -19 6 -26 48 -8 48 23 0 -15 20 -39 20 -12
0 -24 4 -28 10 -3 5 7 7 25 5 26 -3 29 -1 20 10 -6 8 -19 11 -28 7 -15 -5 -15
-4 1 12 22 23 22 29 -2 16 -24 -12 -34 -13 -26 -1 3 5 0 13 -6 17 -6 3 -15 0
-20 -7 -6 -11 -9 -10 -14 3 -4 9 -18 19 -32 23 -14 3 -23 8 -21 10 2 3 19 1
36 -4 28 -8 32 -7 32 10 0 22 -10 24 -29 7 -8 -8 -11 -8 -8 -2 4 7 -1 18 -10
25 -14 12 -16 12 -8 0 6 -11 4 -13 -11 -6 -46 19 -70 17 -81 -7 -7 -12 -12
-17 -12 -10 -1 6 8 21 19 32 24 24 25 31 6 24 -20 -8 -14 39 8 61 17 18 22 40
6 30 -13 -8 -13 6 0 39 5 14 17 26 25 26 9 0 13 4 10 10 -3 5 0 10 7 10 9 0 9
3 -2 10 -21 14 5 13 31 0 15 -8 19 -7 19 4 0 8 6 17 13 20 6 4 2 4 -9 2 -22
-4 -27 15 -9 31 4 4 5 2 1 -4 -5 -9 1 -13 18 -13 14 0 26 -5 26 -12 0 -9 3 -9
12 0 10 10 10 15 -1 21 -9 6 -10 10 -2 12 10 4 17 22 20 52 1 5 6 5 11 2 17
-10 11 7 -7 22 -10 8 -13 12 -7 9 6 -3 17 5 24 19 7 13 18 21 25 19 17 -7 12
35 -6 47 -11 7 -11 9 0 9 8 0 11 6 7 16 -4 10 -1 14 6 11 7 -2 12 -11 10 -21
-2 -9 4 -16 13 -16 9 0 13 4 10 10 -3 6 2 10 11 10 17 0 16 1 -1 13 -14 11
-15 16 -5 22 9 5 11 4 6 -3 -4 -7 -1 -12 8 -12 9 0 16 8 16 18 0 11 10 27 22
38 12 10 18 13 13 5 -6 -11 -4 -13 9 -8 10 4 20 7 22 7 2 0 4 10 4 23 0 16 3
18 9 9 7 -11 9 -11 14 2 4 9 4 23 0 32 -5 13 -2 15 15 10 17 -6 21 -3 19 14
-1 11 -8 20 -17 20 -9 0 -11 3 -5 8 6 4 11 16 13 27 2 16 1 17 -7 5 -12 -18
-26 -6 -17 16 4 10 13 14 27 11 16 -4 19 -2 14 14 -5 14 -2 19 11 19 15 0 16
2 5 13 -10 10 -15 8 -24 -8 -11 -19 -11 -19 -17 5 -4 15 -13 24 -22 24 -14 -1
-15 3 -7 23 7 20 7 24 -5 20 -10 -4 -15 4 -18 28 -3 23 0 31 9 28 17 -7 29 25
14 40 -6 6 -11 20 -10 32 0 11 3 14 6 8 7 -18 23 -16 23 2 0 8 -5 15 -11 15
-8 0 -7 6 2 17 8 9 9 14 3 10 -13 -7 -29 37 -19 53 3 4 1 20 -5 34 -6 16 -6
27 0 31 6 4 10 0 10 -7 1 -9 5 -7 14 5 11 14 36 18 152 23 77 3 144 10 150 15
9 7 6 29 -8 82 -29 109 -55 250 -50 270 4 16 23 17 226 17 221 0 246 -4 246
-35 0 -12 -41 -57 -90 -98 -31 -26 -32 -29 -16 -46 9 -9 16 -24 16 -33 0 -8
-40 -41 -89 -72 -78 -50 -101 -71 -101 -93 0 -3 21 -3 47 0 34 4 53 12 68 30
11 13 38 36 60 49 22 14 59 41 83 61 37 32 46 35 74 27 17 -5 41 -19 53 -30
26 -24 38 -25 56 -3 8 9 29 22 46 30 33 13 41 30 25 48 -14 16 -52 116 -52
136 0 10 8 20 18 22 29 7 564 7 622 -1 47 -6 55 -10 60 -32 4 -18 14 -26 33
-28 23 -3 27 0 27 22 0 15 8 30 19 36 22 11 196 12 336 1 87 -7 93 -12 30 -26
l-30 -7 40 -12 c36 -11 40 -10 43 6 2 10 10 18 18 18 16 0 19 -26 4 -35 -5 -3
-10 -15 -10 -25 0 -14 -16 -24 -57 -40 -164 -60 -196 -75 -205 -96 l-10 -22
-24 26 -24 27 6 -55 c6 -63 30 -183 44 -220 4 -14 20 -54 33 -90 29 -75 37
-132 20 -137 -6 -2 -16 9 -21 24 -9 24 -10 21 -7 -22 3 -27 5 -186 5 -353 l1
-303 27 -30 c32 -35 87 -51 151 -42 l44 6 -7 -104 c-3 -57 -8 -115 -10 -129
-2 -14 -7 -54 -10 -90 -3 -36 -10 -119 -16 -185 -5 -66 -12 -142 -15 -170 -3
-27 -7 -72 -10 -100 -3 -27 -7 -81 -10 -120 -8 -105 -33 -405 -44 -525 -5 -58
-13 -145 -16 -195 -4 -49 -8 -92 -10 -95 -2 -3 -6 -48 -10 -100 -3 -52 -8
-111 -10 -130 -8 -77 -15 -159 -20 -235 -3 -44 -8 -91 -10 -105 -2 -14 -7 -65
-10 -115 -3 -49 -8 -106 -10 -125 -2 -19 -7 -64 -10 -100 -2 -36 -20 -254 -40
-485 -19 -231 -39 -483 -45 -560 -7 -77 -13 -154 -15 -171 -2 -18 -6 -74 -10
-125 -3 -52 -8 -114 -10 -139 -3 -25 -7 -76 -10 -115 -4 -64 -11 -135 -20
-225 -3 -19 -9 -102 -15 -185 -6 -82 -19 -240 -30 -350 -11 -110 -22 -227 -25
-260 -8 -82 -25 -252 -30 -295 -10 -80 -25 -245 -25 -276 l0 -34 79 0 79 0 6
38 c5 35 9 85 21 242 9 110 25 291 80 905 32 349 34 378 40 440 3 28 14 156
25 285 22 268 58 671 65 745 3 28 10 104 15 170 6 66 17 190 25 275 23 229 42
449 70 785 24 294 46 541 65 740 5 55 17 174 25 265 9 91 18 185 20 210 2 25
14 155 26 289 19 226 20 247 5 278 -20 43 -20 46 3 38 17 -5 20 0 26 42 3 26
10 66 14 89 9 44 3 104 -9 104 -4 0 -13 -7 -20 -15 -16 -19 -70 -20 -70 -1 0
20 24 36 64 43 63 10 39 23 -43 23 l-79 0 -7 31 -7 32 -72 -6 c-40 -3 -79 -1
-87 4 -14 9 16 13 109 13 28 0 42 4 42 13 0 9 -15 13 -45 13 -43 0 -46 2 -51
30 -5 25 -11 30 -35 30 -16 0 -29 5 -29 10 0 6 11 10 25 10 34 0 42 25 21 61
-9 16 -15 33 -11 38 3 5 -6 18 -20 29 -28 22 -33 42 -10 42 20 0 19 8 -7 69
-14 34 -18 55 -11 62 10 10 -5 131 -26 206 -6 21 -11 47 -11 58 1 20 1 20 12
0 7 -11 15 -42 19 -69 5 -27 10 -50 12 -53 2 -2 18 -5 36 -6 24 -2 31 -7 31
-23 0 -12 -8 -32 -19 -45 -17 -21 -17 -26 -4 -46 11 -16 28 -23 67 -28 l53 -7
-23 -25 c-13 -14 -24 -38 -24 -53 0 -32 -7 -41 -26 -33 -10 4 -11 10 -4 23 6
10 10 30 10 44 0 24 -4 26 -39 26 l-39 0 24 -65 c26 -72 41 -96 94 -142 32
-27 44 -31 126 -37 69 -6 93 -4 101 6 15 19 22 92 33 359 9 220 18 296 33 272
13 -22 29 -649 18 -725 -2 -14 -21 -8 -21 6 0 8 -6 16 -14 19 -14 6 -17 -5
-31 -133 -2 -19 -7 -80 -11 -135 -3 -55 -8 -101 -9 -103 -2 -2 1 -18 6 -35 5
-18 5 -33 0 -36 -5 -4 -16 -71 -25 -151 -32 -292 -37 -338 -51 -480 -8 -80
-17 -165 -20 -190 -13 -112 -16 -143 -25 -260 -5 -69 -19 -228 -30 -355 -11
-126 -22 -255 -25 -285 -2 -30 -11 -147 -20 -260 -8 -113 -20 -252 -25 -310
-6 -58 -12 -132 -15 -165 -3 -33 -7 -82 -10 -110 -2 -27 -7 -93 -11 -145 -4
-52 -8 -106 -10 -120 -1 -14 -5 -56 -9 -95 -3 -38 -8 -90 -11 -115 -2 -25 -9
-99 -14 -165 -6 -66 -12 -136 -15 -155 -2 -19 -7 -79 -10 -132 -4 -54 -8 -112
-11 -130 -2 -18 -11 -112 -19 -208 -8 -96 -17 -191 -20 -210 -3 -19 -9 -102
-15 -185 -6 -82 -12 -177 -15 -210 -9 -103 -16 -179 -20 -215 -2 -19 -7 -73
-10 -120 -3 -47 -8 -105 -11 -130 -2 -25 -8 -94 -14 -155 -21 -234 -49 -542
-55 -588 l-6 -47 167 2 168 3 0 67 c1 38 4 68 7 68 3 0 5 15 5 32 0 38 10 180
25 348 5 63 12 149 14 191 2 42 8 87 13 100 5 13 10 53 12 89 6 120 9 165 15
230 9 106 14 171 18 233 2 35 10 64 20 75 19 21 22 37 6 26 -9 -5 -10 24 -5
112 11 176 24 322 33 379 2 17 7 64 9 105 3 41 9 118 15 170 11 108 15 157 23
285 9 124 23 259 32 310 2 10 6 49 9 85 3 36 8 85 10 110 3 25 8 68 10 95 3
28 9 84 14 125 6 41 12 104 16 140 3 36 9 99 15 140 5 41 12 106 15 143 2 38
7 72 10 76 2 4 7 34 10 67 6 69 11 98 30 179 50 209 55 258 60 551 3 182 19
381 36 444 5 19 9 47 9 62 0 15 4 29 8 32 9 5 10 3 13 -52 1 -18 6 -35 10 -38
10 -6 14 30 34 271 9 105 18 201 21 215 l5 26 142 -1 c78 -1 154 -5 170 -9
l27 -8 -6 58 c-4 33 -10 79 -14 104 -5 28 -4 50 2 57 12 15 68 17 68 3 0 -15
31 -12 77 9 34 16 41 23 36 40 -3 12 -1 21 6 21 6 0 11 -4 11 -9 0 -24 101
-15 120 11 3 3 25 9 50 13 25 4 47 9 49 11 2 2 10 -1 18 -7 7 -6 13 -7 13 -2
0 5 12 10 26 11 14 1 31 5 37 9 7 4 22 8 33 8 12 0 29 7 37 14 9 7 21 10 27 6
6 -3 10 3 10 15 0 26 8 29 102 33 81 4 108 16 108 49 0 35 52 45 285 52 246 7
400 15 460 22 22 2 67 7 100 10 33 4 68 11 78 16 10 5 28 11 39 13 33 7 325
17 530 18 184 2 187 2 212 -22 20 -19 26 -21 26 -9 0 9 10 19 23 22 32 10 417
28 450 22 15 -3 39 -1 53 4 14 6 63 12 110 15 108 7 348 41 406 59 29 8 51 10
61 4 20 -11 19 -15 47 187 11 83 36 227 55 322 41 199 41 203 17 203 -10 0
-19 6 -19 13 0 9 32 11 140 8 92 -2 138 0 133 7 -3 5 2 12 12 14 29 8 243 -10
257 -22 6 -5 14 -8 17 -5 10 11 314 9 334 -2 11 -7 38 -9 60 -6 36 5 43 2 62
-22 24 -31 30 -54 9 -37 -7 6 -24 8 -37 5 -15 -4 -21 -2 -17 4 4 6 -2 13 -13
16 -11 3 -18 2 -16 -2 3 -4 0 -27 -5 -51 l-10 -45 -96 -3 c-107 -3 -115 1
-106 55 5 30 4 33 -21 33 -15 0 -28 -6 -31 -12 -7 -25 -13 -618 -6 -618 5 0
11 78 14 173 7 171 23 287 43 294 5 2 18 -3 29 -11 17 -12 18 -18 8 -50 -7
-22 -11 -96 -10 -174 2 -109 5 -137 16 -137 21 0 41 85 53 227 l11 126 38 10
c47 12 45 27 19 -178 -11 -85 -21 -184 -21 -220 -2 -74 -10 -125 -21 -122 -22
6 -28 -1 -28 -27 0 -16 6 -31 15 -35 11 -4 15 -20 15 -55 0 -30 5 -51 13 -54
6 -3 -55 -6 -136 -6 -96 -1 -146 2 -142 9 4 6 -6 10 -22 10 -15 0 -38 3 -50 6
-14 4 -23 2 -23 -5 0 -6 17 -11 38 -11 27 0 33 -3 22 -10 -8 -5 -62 -10 -120
-10 -68 0 -100 4 -90 10 12 7 12 12 -4 29 -16 18 -18 37 -17 146 0 70 3 130 5
133 2 4 7 57 10 117 4 61 9 121 11 135 13 77 15 159 4 165 -25 16 -25 18 -46
-445 -3 -80 -7 -177 -7 -217 l-1 -72 -120 -1 c-144 -2 -203 -5 -230 -14 -39
-12 -45 4 -36 89 5 44 7 83 5 87 -24 38 -146 -66 -158 -133 -6 -34 -9 -37 -53
-43 -85 -11 -93 -9 -93 24 0 42 -32 54 -80 30 -20 -10 -53 -21 -73 -25 -27 -5
-37 -12 -37 -26 0 -14 -7 -19 -25 -19 -18 0 -25 5 -25 19 0 23 -9 26 -113 41
-103 15 -125 10 -129 -33 l-3 -32 -107 0 c-58 0 -109 -3 -113 -7 -4 -3 10 -24
29 -46 20 -22 36 -45 36 -51 0 -6 -16 -11 -36 -11 -45 0 -41 -22 4 -25 19 -2
29 1 26 7 -4 6 2 8 12 6 21 -4 27 -36 27 -130 l-1 -58 49 0 c55 0 56 -3 38
-80 -6 -25 -12 -80 -14 -122 -2 -69 -14 -108 -34 -108 -3 0 -7 55 -8 123 -3
175 -4 177 -25 177 -10 0 -27 -9 -38 -20 -14 -14 -33 -20 -65 -20 -39 0 -45
-3 -45 -21 0 -11 -5 -17 -10 -14 -6 4 -9 14 -8 23 2 14 -7 18 -46 20 -27 2
-54 -2 -60 -8 -6 -6 -9 -38 -8 -78 l4 -67 -51 3 c-44 3 -51 7 -52 25 -3 86 -5
101 -16 104 -10 4 -13 -14 -13 -67 l0 -71 -35 -15 c-51 -21 -55 -19 -55 39 0
28 -3 70 -7 91 l-6 39 -381 -6 c-209 -4 -383 -10 -387 -14 -7 -7 5 -200 16
-269 l5 -30 217 0 218 1 12 -70 c7 -38 17 -94 24 -124 l11 -54 23 28 22 29 6
-30 c3 -16 1 -36 -4 -45 -11 -21 -2 -29 32 -29 38 0 74 49 89 122 14 73 42
112 110 160 42 30 63 38 88 35 17 -1 32 1 32 6 0 4 26 7 58 5 l57 -3 26 -106
c28 -113 48 -151 91 -170 23 -9 32 -8 53 5 14 10 30 27 34 39 10 27 -2 135
-19 168 -23 43 -82 103 -133 135 -56 35 -51 46 20 42 43 -3 53 -8 100 -55 36
-38 59 -53 78 -53 l26 0 -18 -30 c-21 -36 -14 -44 46 -55 29 -6 38 -3 52 17
61 79 98 195 100 313 0 33 4 69 8 80 l8 20 6 -20 c25 -84 31 -224 12 -282 -5
-17 -3 -23 8 -23 17 0 19 -9 43 -264 12 -125 13 -171 4 -180 -6 -6 -54 -12
-118 -13 -59 -1 -177 -5 -262 -9 l-155 -7 95 -19 c119 -24 258 -90 343 -162
54 -46 66 -51 85 -43 29 13 43 0 51 -48 3 -20 9 -36 14 -35 4 0 39 0 78 0 l72
0 -7 98 c-4 53 -11 140 -16 192 -29 281 -70 801 -65 810 13 21 34 9 39 -22 7
-43 23 -277 42 -628 8 -157 18 -321 22 -365 l7 -80 55 -3 c30 -1 73 1 95 6
l40 8 0 54 c0 30 -4 69 -8 87 -4 18 -10 74 -13 125 -10 197 -14 268 -25 418
-6 85 -12 166 -14 180 -1 14 -4 72 -6 130 l-4 105 38 3 37 3 0 -61 c0 -75 28
-538 36 -599 7 -52 16 -43 40 38 22 75 83 564 76 614 -1 15 7 17 61 16 41 -1
54 -3 37 -8 -22 -6 -26 -14 -36 -96 -7 -50 -14 -117 -16 -150 l-3 -60 35 -5
c31 -5 35 -9 42 -45 4 -22 11 -112 15 -200 7 -132 11 -160 23 -160 11 0 14 10
13 35 -14 253 -15 388 -4 395 7 4 18 2 24 -4 6 -6 21 -11 33 -11 31 0 36 -24
32 -143 -2 -84 0 -102 12 -105 13 -2 15 21 18 150 2 127 9 240 25 383 2 16 -6
21 -33 25 -37 6 373 25 438 21 9 -1 12 -30 12 -108 0 -60 5 -214 11 -344 12
-226 11 -237 -7 -262 -27 -37 -51 -35 -57 6 -2 17 -5 90 -6 162 -1 71 -4 131
-7 134 -2 2 -4 -49 -4 -115 0 -65 -3 -149 -6 -186 -7 -77 -5 -78 70 -57 51 14
56 5 53 -91 -3 -69 -7 -82 -56 -173 -29 -54 -52 -99 -50 -101 6 -6 254 -66
270 -66 15 0 75 95 104 165 40 96 57 255 71 628 4 122 7 143 28 175 12 20 49
88 82 149 l59 113 50 0 c64 0 79 -9 67 -41 -14 -37 -35 -473 -33 -711 0 -49
-4 -88 -8 -88 -4 0 -8 -7 -8 -15 0 -8 4 -15 8 -15 8 0 7 -20 -3 -35 -3 -5 -4
-28 -2 -50 1 -22 3 -47 4 -55 0 -13 2 -13 9 -1 5 8 10 39 10 70 1 31 3 74 5
96 2 22 7 105 11 185 4 80 8 161 10 180 2 20 6 112 10 205 4 94 9 171 10 173
1 1 14 -2 28 -9 31 -14 29 0 62 -404 14 -165 28 -321 31 -347 5 -38 3 -49 -9
-54 -32 -12 -175 -203 -231 -308 -51 -96 -56 -110 -41 -118 9 -6 36 -40 60
-76 25 -37 62 -89 84 -117 22 -27 40 -56 40 -62 1 -7 5 -13 10 -13 5 0 11 -12
14 -27 10 -47 28 -61 82 -65 47 -3 50 -5 57 -38 8 -42 15 -197 8 -203 -5 -4
-307 -26 -840 -62 -234 -16 -622 -39 -930 -55 -107 -6 -233 -13 -280 -15 -47
-3 -166 -10 -265 -15 -99 -6 -261 -15 -360 -20 -99 -6 -286 -15 -415 -20 -255
-10 -360 -24 -496 -65 -183 -55 -316 -136 -435 -262 -124 -132 -193 -255 -269
-486 -32 -96 -58 -157 -66 -157 -19 0 -51 50 -180 285 -40 71 -44 67 -9 -9 14
-30 29 -67 35 -83 8 -24 8 -25 -3 -9 -165 256 -237 349 -245 314 -6 -29 37
-140 112 -290 103 -204 227 -438 231 -438 13 0 35 63 27 73 -11 14 -43 87 -37
87 1 0 12 -16 24 -35 11 -19 24 -35 30 -35 8 0 11 9 27 87 3 18 16 43 28 56
12 13 39 59 59 102 56 118 171 306 209 341 91 85 176 144 207 144 17 0 31 -5
31 -10 0 -11 -71 -84 -162 -168 -26 -24 -75 -84 -109 -134 -34 -50 -70 -93
-80 -95 -39 -11 -115 -163 -154 -313 -15 -58 -36 -127 -46 -155 -19 -51 -43
-221 -54 -380 -3 -49 -10 -124 -15 -165 -5 -41 -11 -124 -15 -185 -3 -60 -8
-126 -10 -145 -3 -19 -12 -120 -20 -225 -8 -104 -17 -212 -20 -240 -2 -27 -7
-81 -10 -120 -3 -38 -10 -113 -15 -165 -5 -52 -12 -124 -15 -160 -7 -85 -22
-258 -35 -394 -5 -60 -10 -113 -10 -118 0 -10 250 -11 251 0 1 4 3 27 5 52 2
25 8 92 14 150 39 398 48 487 47 500 0 22 34 436 48 580 2 25 7 86 11 135 4
50 8 101 10 115 2 14 6 54 9 90 3 36 14 146 25 245 22 207 30 300 35 405 4 67
9 110 20 175 2 11 13 44 24 73 11 29 20 55 20 57 2 14 56 114 77 142 13 17 24
34 24 38 0 3 10 16 23 29 12 13 36 38 54 57 31 33 78 77 121 111 13 11 22 13
24 6 3 -7 22 1 49 19 137 94 289 141 481 147 73 3 156 8 183 11 60 6 511 41
645 50 52 3 162 12 243 20 81 8 151 14 155 13 4 -1 43 2 87 6 44 4 130 11 190
17 61 5 133 12 160 14 28 3 138 12 245 20 107 8 233 20 280 25 47 5 112 11
145 14 33 3 122 10 198 17 76 6 140 9 142 7 6 -6 -319 -45 -525 -63 -96 -9
-245 -22 -330 -30 -85 -9 -249 -22 -365 -30 -115 -8 -244 -19 -285 -25 -67 -8
-153 -16 -560 -50 -169 -14 -520 -39 -634 -45 -93 -5 -212 -28 -229 -44 -4 -4
-5 -15 -1 -25 5 -13 13 -16 32 -11 32 8 245 31 367 40 50 4 106 8 125 10 19 2
67 7 105 10 39 3 95 8 125 11 30 4 75 8 99 10 52 3 169 13 256 20 33 3 67 7
75 9 8 2 56 6 105 10 50 3 101 8 115 10 14 2 61 7 105 10 44 3 127 10 185 15
58 5 137 12 175 15 39 4 86 8 105 10 19 2 94 9 165 15 118 10 389 34 490 44
22 2 76 6 120 9 134 9 22 -9 -208 -34 -253 -28 -240 -16 -208 -184 12 -60 28
-158 36 -217 16 -122 75 -373 101 -433 15 -35 18 -38 25 -20 4 11 8 15 8 10 1
-6 10 -11 21 -12 11 -1 19 3 17 10 -1 6 8 12 21 13 12 1 22 -2 22 -7 0 -5 7
-6 15 -3 8 4 15 1 15 -5 0 -6 6 -11 14 -11 11 0 14 -11 11 -44 -3 -42 -1 -47
33 -73 20 -15 46 -39 57 -53 11 -14 36 -42 56 -62 20 -20 35 -39 33 -41 -2 -2
7 -9 19 -16 13 -7 31 -25 40 -39 17 -30 39 -58 80 -107 59 -71 177 -229 177
-237 0 -5 -28 15 -62 46 -34 31 -63 54 -66 52 -2 -3 37 -107 86 -233 316 -799
325 -823 319 -885 -3 -32 -1 -61 4 -64 22 -13 113 19 150 54 43 38 54 86 22
96 -12 4 -48 80 -110 233 -50 126 -115 284 -143 353 -90 218 -103 256 -83 239
10 -8 48 -41 85 -73 50 -42 99 -71 188 -111 l120 -53 1 81 2 82 7 -90 c17
-191 41 -501 60 -770 15 -207 45 -608 50 -662 0 -2 65 -3 145 -3 l146 0 -5 33
c-3 17 -8 79 -11 137 -4 58 -10 146 -15 195 -5 50 -12 128 -15 175 -7 94 -28
349 -50 595 -7 88 -19 221 -24 295 -6 74 -16 180 -21 235 -12 116 -34 395 -55
680 -8 110 -19 263 -25 340 -6 77 -20 266 -31 420 -11 154 -22 296 -24 315 -2
19 -6 98 -10 175 -3 77 -8 149 -10 160 -3 11 -14 146 -25 300 -11 154 -27 357
-35 450 -17 192 -20 228 -35 445 -18 257 -59 775 -75 935 -8 83 -17 179 -20
215 -10 135 -17 188 -36 280 -29 142 -100 397 -124 443 -8 16 -15 38 -15 50 0
18 5 15 26 -17 65 -95 147 -323 189 -521 13 -60 29 -176 36 -257 l13 -147 70
-15 c115 -25 207 -39 213 -32 4 3 -1 6 -10 6 -9 0 -19 4 -22 10 -4 6 4 9 17 7
14 -1 22 3 20 11 -1 6 3 12 9 12 5 0 7 5 4 11 -4 6 2 19 14 30 12 11 21 27 21
35 0 8 5 12 10 9 7 -4 7 -13 0 -26 -13 -23 -7 -24 24 -3 18 11 26 12 31 3 6
-8 10 -8 17 2 5 9 6 4 2 -15 -5 -21 -4 -27 5 -22 6 4 11 14 11 22 0 8 5 14 11
14 5 0 7 -4 4 -10 -6 -9 8 -14 28 -11 5 1 6 -8 2 -19 -4 -13 -2 -20 7 -20 8 0
14 -15 15 -40 3 -40 3 -40 -35 -40 -21 0 -42 4 -47 9 -15 13 -62 26 -50 13 6
-5 19 -12 30 -15 11 -3 1 -5 -22 -6 l-42 -1 -77 -137 c-42 -76 -98 -171 -123
-210 -89 -141 -85 -131 -82 -207 1 -39 24 -343 49 -675 l47 -604 35 -20 c52
-29 109 -72 163 -124 56 -54 55 -56 -53 -67 -36 -4 -78 -9 -93 -12 l-29 -6 7
-145 c3 -79 10 -154 15 -166 4 -12 23 -35 40 -52 43 -40 110 -143 110 -169 0
-16 -16 -4 -70 54 l-71 75 6 -105 c3 -58 15 -204 25 -325 10 -121 24 -292 30
-380 6 -88 15 -214 20 -280 5 -66 14 -181 20 -255 6 -74 19 -263 30 -420 11
-157 23 -315 26 -351 l6 -67 46 -25 c72 -38 120 -51 137 -37 8 6 18 9 23 6 5
-3 21 8 35 24 28 31 105 75 115 66 3 -3 1 -6 -4 -6 -4 0 17 -25 48 -54 57 -55
115 -92 126 -81 3 3 -4 33 -17 68 -31 84 -42 122 -33 111 5 -5 45 -106 90
-224 102 -269 211 -555 313 -821 43 -114 79 -212 79 -218 0 -7 39 -11 120 -11
66 0 120 1 120 3 0 2 -21 57 -46 122 -25 66 -55 145 -66 175 -11 30 -26 69
-34 86 -7 17 -45 115 -84 218 -92 244 -206 541 -287 746 -86 217 -129 328
-163 420 -46 124 -148 387 -163 422 -8 18 -24 61 -35 95 l-20 61 26 10 c15 6
44 13 65 17 l37 6 0 -54 c0 -29 5 -78 10 -108 14 -72 142 -412 158 -417 6 -2
12 1 12 7 0 17 97 186 115 201 13 11 15 10 9 -6 -3 -10 -13 -35 -22 -54 -8
-19 -33 -78 -54 -130 l-39 -95 32 -90 c17 -49 41 -108 51 -129 22 -43 22 -43
56 9 4 6 41 41 83 78 87 78 245 251 300 331 21 30 47 82 58 115 25 75 40 103
52 96 5 -4 9 -17 9 -31 0 -59 61 7 114 124 16 35 25 39 44 20 10 -10 25 0 70
45 32 31 63 57 69 57 6 0 13 5 15 12 3 7 12 9 22 5 15 -6 17 -14 11 -47 -7
-40 7 -57 19 -24 11 29 6 63 -15 107 l-21 44 23 24 c64 66 71 80 56 97 -20 24
-28 63 -33 167 -3 50 -6 99 -6 110 -5 75 5 89 267 390 52 60 101 118 162 191
21 25 33 52 35 74 1 19 3 51 4 70 2 37 -13 107 -28 127 -10 12 3 17 122 43 68
16 93 29 150 81 37 33 41 39 20 33 -43 -12 -46 -11 -12 4 25 12 32 21 32 42 0
15 -7 33 -15 40 -8 7 -15 18 -15 24 0 6 12 -2 26 -18 30 -34 28 -70 -6 -113
-11 -14 -20 -39 -20 -54 0 -24 4 -29 25 -29 17 0 29 9 38 28 12 23 12 50 1
177 -21 253 -24 283 -39 495 -22 323 -28 444 -29 600 -1 140 -10 267 -41 585
-8 83 -20 202 -25 265 -6 63 -19 210 -30 325 -10 116 -24 273 -29 351 -14 181
-42 268 -118 361 -39 49 -37 67 7 52 31 -11 86 -73 115 -129 9 -19 24 -43 32
-52 8 -9 12 -21 9 -27 -7 -11 22 -350 30 -363 10 -16 53 -8 59 11 10 33 35
263 35 329 0 58 -2 63 -26 72 -36 14 -28 44 13 48 17 2 37 10 43 18 21 24 29
16 27 -31 -1 -24 3 -49 10 -56 7 -7 43 -13 82 -13 114 -3 114 -29 1 -32 -38 0
-76 -6 -84 -13 -10 -8 -16 -50 -22 -149 -11 -168 -11 -172 -1 -172 4 0 23 -6
42 -14 39 -17 36 -16 65 -16 17 0 19 -3 8 -19 -6 -11 -20 -20 -30 -20 -10 -1
-27 -1 -38 -2 -11 0 -20 -4 -20 -10 0 -5 23 -9 50 -9 28 0 64 -6 79 -14 15 -8
43 -14 62 -14 19 0 97 -7 174 -15 77 -9 145 -17 152 -17 21 0 29 61 32 256 2
151 0 194 -11 200 -7 5 -68 8 -135 7 -73 -2 -124 1 -128 7 -3 6 -19 10 -35 10
-28 0 -48 15 -36 27 7 8 89 12 231 13 l100 1 35 70 c58 115 108 149 223 149
68 0 71 11 5 15 -24 2 -199 8 -390 13 -326 10 -382 16 -378 38 0 5 -7 11 -17
13 -10 2 -22 9 -26 17 -4 8 -13 14 -19 14 -7 0 -6 -5 2 -15 22 -26 -14 -18
-44 10 -26 24 -31 25 -162 23 -93 -1 -140 -5 -148 -14 -8 -8 -18 -9 -27 -3 -8
5 -23 9 -34 9 -17 0 -17 -2 -5 -10 12 -8 12 -10 -5 -11 -11 -1 -29 -2 -40 -3
-11 0 -26 5 -33 12 -16 14 -52 16 -52 2 0 -5 8 -7 18 -3 14 5 13 3 -3 -10 -22
-18 -55 -22 -55 -7 0 6 5 10 11 10 5 0 7 5 4 10 -12 20 -33 11 -27 -12 4 -18
2 -20 -14 -13 -23 9 -19 9 -117 -5 -43 -7 -90 -9 -105 -4 -15 4 -33 7 -39 7
-7 0 -105 -1 -218 -2 -232 -1 -214 6 -229 -87 l-7 -41 416 -2 c446 -2 465 -4
499 -52 25 -36 20 -38 -41 -19 -58 17 -128 23 -318 24 l-100 1 -3 -38 c-4 -48
11 -54 94 -37 l64 12 30 -32 c16 -18 30 -34 30 -36 0 -2 -15 -4 -34 -4 -40 0
-54 -23 -23 -38 12 -6 92 -15 177 -22 212 -15 240 -19 247 -36 12 -33 -11 -36
-218 -24 -145 9 -208 16 -218 25 -12 12 -19 11 -42 -6 -25 -17 -27 -23 -16
-40 17 -29 -14 -53 -49 -37 -13 6 -27 8 -30 5 -12 -11 -17 -533 -6 -522 6 6
16 80 22 165 15 191 33 227 25 50 -3 -69 -7 -141 -9 -160 -3 -19 -7 -78 -11
-130 -8 -119 -12 -167 -25 -255 -8 -62 -14 -197 -11 -278 1 -26 2 -27 17 -13
12 12 40 16 122 17 59 1 118 3 132 4 114 10 350 16 351 9 0 -5 2 -31 5 -59 5
-51 5 -181 1 -245 -2 -31 1 -35 25 -38 14 -2 31 -9 36 -15 13 -17 41 -229 52
-397 17 -244 31 -478 38 -628 l7 -144 -50 8 c-162 27 -262 -13 -428 -170 -54
-51 -76 -55 -178 -36 -47 9 -55 8 -64 -6 -39 -66 -169 -255 -178 -261 -7 -4
-4 4 5 17 54 78 91 151 104 204 9 34 26 93 40 133 20 61 24 90 24 197 0 108
-3 129 -18 144 -22 22 -35 82 -62 286 -23 169 -72 431 -114 606 -14 58 -46
197 -71 310 -25 113 -48 210 -50 215 -9 19 6 -218 31 -503 14 -155 24 -303 22
-330 -3 -45 -4 -43 -16 33 -18 114 -38 321 -62 615 -24 313 -51 499 -90 616
-17 54 -27 73 -23 49 9 -68 -11 -28 -54 105 -57 177 -63 222 -58 395 l5 150
-25 -100 c-34 -141 -100 -476 -124 -630 -21 -137 -76 -559 -167 -1290 -59
-474 -72 -554 -111 -685 -27 -91 -95 -234 -138 -290 l-27 -35 6 30 c4 17 20
55 37 87 71 136 99 241 135 508 25 183 29 218 58 460 61 506 151 1155 191
1381 39 215 124 602 179 809 8 30 23 89 34 130 54 201 78 535 48 662 -24 105
-58 131 -109 84 -25 -23 -67 -135 -67 -179 0 -11 -9 -53 -20 -93 -11 -40 -20
-76 -18 -81 1 -4 -6 -40 -15 -80 -9 -39 -14 -86 -11 -105 4 -24 3 -29 -4 -19
-8 11 -12 6 -17 -22 -4 -19 -4 -41 1 -48 4 -7 3 -10 -2 -6 -6 3 -15 -18 -22
-46 -6 -29 -19 -86 -28 -127 -9 -41 -19 -70 -21 -63 -4 11 34 205 62 313 14
57 56 324 54 350 -1 14 -26 -94 -64 -275 -17 -85 -43 -166 -44 -143 -1 9 4 29
10 45 16 42 51 241 47 271 -2 15 -14 -29 -28 -98 -17 -90 -26 -118 -31 -100
l-6 25 -7 -30 c-4 -16 -14 -49 -23 -73 -19 -54 -11 -78 11 -32 17 34 17 34 11
5 -12 -59 -58 -200 -68 -206 -5 -4 -6 -12 -2 -19 6 -9 4 -11 -5 -5 -10 6 -12
4 -7 -8 3 -10 2 -17 -3 -17 -6 0 -10 -6 -10 -14 0 -8 -5 -18 -12 -22 -12 -8
-8 81 11 236 5 41 12 98 15 125 4 28 11 75 16 105 5 30 17 104 27 164 10 60
24 116 31 123 7 7 10 13 5 14 -4 1 3 5 17 9 37 12 100 12 100 -1 0 -5 5 -7 10
-4 22 13 4 142 -18 138 -7 -2 -12 3 -12 11 0 8 -6 16 -12 19 -10 4 -10 7 0 18
20 21 15 42 -9 36 -15 -4 -19 -2 -15 9 9 24 -21 16 -56 -15z m-8168 -368 c-8
-3 -18 -10 -21 -15 -3 -5 -12 -2 -19 7 -11 13 -8 15 21 14 19 0 27 -3 19 -6z
m63 0 c-7 -2 -21 -2 -30 0 -10 3 -4 5 12 5 17 0 24 -2 18 -5z m342 -3 c6 -9
-304 -4 -314 5 -2 3 66 5 152 5 90 0 158 -4 162 -10z m5995 -137 c0 -5 -18 -8
-40 -9 -22 0 -40 3 -40 8 0 4 18 8 40 8 22 0 40 -3 40 -7z m35 -3 c3 -5 -1
-10 -10 -10 -9 0 -13 5 -10 10 3 6 8 10 10 10 2 0 7 -4 10 -10z m303 -7 c-54
-2 -142 -2 -195 0 -54 1 -10 3 97 3 107 0 151 -2 98 -3z m462 -13 c50 -6 34
-7 -65 -4 -71 2 -164 5 -205 5 -49 1 -65 4 -45 8 36 8 226 2 315 -9z m178 -7
c-21 -2 -55 -2 -75 0 -21 2 -4 4 37 4 41 0 58 -2 38 -4z m335 -10 c-13 -2 -35
-2 -50 0 -16 2 -5 4 22 4 28 0 40 -2 28 -4z m-5643 -82 c0 -5 -19 -9 -42 -9
-32 0 -38 2 -23 8 27 12 65 12 65 1z m6107 -13 c-3 -8 -6 -5 -6 6 -1 11 2 17
5 13 3 -3 4 -12 1 -19z m-7779 3 c26 -13 182 -23 422 -27 483 -7 606 -7 637 0
17 4 34 3 37 -2 3 -6 30 -11 58 -11 129 -4 398 -6 448 -3 30 2 91 1 135 -2 44
-3 285 -8 535 -11 250 -4 514 -8 585 -10 72 -1 175 -4 230 -5 82 -2 94 -4 65
-11 -19 -5 -71 -7 -115 -4 -44 2 -300 7 -570 10 -269 3 -528 8 -575 10 -73 4
-1263 17 -1800 20 -468 2 -565 5 -546 17 18 10 248 14 264 4 8 -5 153 22 160
29 7 7 11 6 30 -4z m1372 -6 c0 -14 -68 -26 -76 -13 -3 4 -13 4 -23 -1 -13 -8
-18 -6 -18 5 0 8 6 13 12 10 7 -2 17 -1 23 2 20 13 82 10 82 -3z m-2003 -31
c-3 -3 -12 -4 -19 -1 -8 3 -5 6 6 6 11 1 17 -2 13 -5z m131 -1 c-16 -2 -40 -2
-55 0 -16 2 -3 4 27 4 30 0 43 -2 28 -4z m4207 -34 c6 4 57 4 115 0 58 -4 299
-10 535 -14 261 -5 434 -11 440 -17 10 -10 -130 -9 -1138 8 -202 4 -366 9
-363 11 3 3 69 7 148 10 79 3 144 6 145 7 2 1 26 -1 55 -5 29 -3 58 -3 63 0z
m-1915 -24 c360 -6 521 -14 537 -27 44 -34 -35 -80 -101 -58 -61 20 -93 -14
-52 -55 16 -16 32 -23 46 -20 13 2 32 0 43 -6 14 -8 22 -8 27 1 15 24 48 -54
59 -139 14 -108 15 -101 -14 -101 -14 0 -25 5 -25 10 0 6 -8 10 -17 10 -10 0
-31 9 -48 20 -16 11 -33 20 -37 20 -5 0 -26 -18 -49 -40 -23 -22 -45 -38 -49
-35 -5 3 -11 1 -15 -5 -3 -5 -17 -10 -30 -10 -18 0 -24 6 -27 28 -2 21 -9 27
-28 28 -28 2 -40 -11 -40 -43 0 -20 -6 -23 -40 -25 -88 -4 -84 -5 -90 27 -4
25 -10 30 -35 30 -26 0 -30 -4 -33 -31 -3 -31 -5 -32 -63 -38 -70 -8 -79 -4
-79 33 0 35 -5 39 -35 33 -21 -4 -25 -10 -25 -38 0 -26 -4 -34 -17 -34 -26 0
-123 47 -123 60 0 5 -11 10 -24 10 -27 0 -118 48 -112 59 12 20 -26 149 -59
198 -33 50 -34 53 -16 63 11 5 26 10 33 10 7 0 19 9 25 19 10 16 9 22 -3 32
-27 22 6 29 111 24 55 -3 237 -7 405 -10z m1443 8 c-7 -2 -21 -2 -30 0 -10 3
-4 5 12 5 17 0 24 -2 18 -5z m-2106 -11 c6 -4 16 -19 21 -32 10 -26 -4 -50
-30 -50 -7 0 -20 -5 -28 -10 -12 -8 -11 -12 7 -32 37 -40 62 -101 66 -160 l4
-58 -55 -25 c-51 -23 -132 -34 -132 -17 -5 95 -22 216 -35 235 -14 22 -14 25
-1 30 10 4 17 27 22 66 l7 61 71 0 c39 0 76 -4 83 -8z m2132 -33 l36 -17 -27
-11 c-36 -14 -39 -60 -5 -91 l22 -21 -32 -27 c-44 -37 -56 -105 -52 -296 2
-99 -1 -158 -8 -171 -11 -19 -25 -20 -365 -26 -352 -5 -388 -2 -388 28 0 7 -4
13 -10 13 -6 0 -9 6 -8 13 5 22 51 24 86 3 28 -16 35 -17 43 -5 14 23 6 32
-58 64 -54 28 -63 29 -82 17 -11 -8 -21 -10 -21 -5 0 16 31 53 46 53 8 0 14 4
14 10 0 6 10 5 25 -2 22 -10 29 -9 43 6 13 14 14 20 4 23 -9 4 -10 9 -3 17 8
10 -3 20 -44 41 -44 22 -55 32 -55 52 0 13 -7 53 -16 88 -19 74 -9 114 33 142
32 21 29 31 -12 49 -31 13 -35 17 -29 42 4 15 8 30 10 33 2 3 186 4 410 1 363
-4 410 -7 443 -23z m924 -6 c-7 -2 -21 -2 -30 0 -10 3 -4 5 12 5 17 0 24 -2
18 -5z m202 -3 c-3 -5 -1 -35 4 -66 11 -56 10 -56 -25 -100 -21 -25 -33 -48
-28 -55 4 -8 3 -9 -4 -5 -7 4 -12 15 -12 24 0 13 -2 14 -9 4 -6 -10 -10 -8
-16 10 -4 12 -7 27 -6 31 1 5 -3 5 -9 2 -6 -4 -9 -14 -5 -23 4 -12 1 -12 -16
4 -12 10 -19 13 -14 5 5 -10 4 -12 -3 -7 -7 4 -12 14 -12 22 0 9 -5 12 -12 8
-6 -4 -9 -3 -6 2 3 5 2 20 -3 33 -8 19 -12 21 -24 11 -12 -10 -15 -10 -15 3 0
8 -7 20 -15 27 -25 21 -17 39 18 42 23 2 32 8 31 21 -2 15 9 17 93 17 59 0 92
-4 88 -10z m317 -8 c9 -9 -156 -3 -237 8 -39 5 -10 6 85 3 80 -3 148 -8 152
-11z m508 -7 c0 -10 -10 -15 -30 -15 -20 0 -30 5 -30 15 0 10 10 15 30 15 20
0 30 -5 30 -15z m-440 -5 c0 -5 -7 -10 -16 -10 -8 0 -12 5 -9 10 3 6 10 10 16
10 5 0 9 -4 9 -10z m905 0 c-28 -12 -45 -12 -45 0 0 6 15 10 33 9 27 0 29 -2
12 -9z m660 -21 c-4 -12 -20 -50 -37 -85 l-30 -64 -36 31 c-35 29 -37 33 -34
85 l4 54 70 0 c66 0 69 -1 63 -21z m233 6 c-12 -9 -68 -32 -65 -27 2 4 7 14
10 23 4 12 13 15 32 12 14 -3 25 -6 23 -8z m790 -1 l93 -6 -20 -31 c-11 -18
-28 -32 -38 -32 -12 0 -18 -9 -20 -28 -1 -16 -6 -34 -11 -40 -6 -7 -20 -101
-33 -210 -13 -109 -26 -203 -30 -209 -4 -6 -12 -7 -20 -2 -8 4 -25 9 -39 10
-41 3 -54 8 -68 24 -8 8 -11 9 -7 3 11 -23 -16 -13 -41 15 -14 15 -23 21 -19
14 3 -6 -11 -2 -32 10 -21 12 -40 26 -41 31 -2 4 -10 3 -18 -4 -10 -8 -14 -8
-14 0 0 6 -5 11 -12 11 -6 0 -19 6 -27 14 -9 7 -45 26 -81 42 -36 15 -68 34
-73 41 -4 7 -13 10 -20 7 -41 -15 -59 151 -28 271 16 64 20 70 46 75 36 6 428
2 553 -6z m1809 -20 c-3 -3 -12 -4 -19 -1 -8 3 -5 6 6 6 11 1 17 -2 13 -5z
m-8884 -18 c29 -22 21 -72 -22 -141 -11 -16 -20 -38 -20 -48 -2 -39 -97 -50
-184 -21 -37 12 -47 20 -45 34 3 21 215 189 238 189 8 0 23 -6 33 -13z m78
-33 c-12 -20 -14 -14 -5 12 4 9 9 14 11 11 3 -2 0 -13 -6 -23z m63 19 c6 -10
-5 -26 -26 -38 -12 -7 -14 -13 -7 -24 8 -13 12 -11 29 10 11 14 20 31 20 38 0
17 21 15 47 -6 19 -14 22 -23 16 -55 -4 -28 -10 -37 -22 -35 -11 3 -15 13 -14
33 2 27 1 28 -10 12 -29 -44 -38 -52 -43 -40 -4 8 -15 11 -28 7 -35 -8 -38 17
-10 65 24 40 38 49 48 33z m8556 -22 c-20 -13 -50 -13 -50 0 0 6 15 10 33 10
24 0 28 -3 17 -10z m208 3 c-10 -2 -28 -2 -40 0 -13 2 -5 4 17 4 22 1 32 -1
23 -4z m-5771 -29 c-12 -12 -85 -16 -92 -5 -4 7 11 11 46 11 29 0 50 -3 46 -6z
m804 -102 c18 -53 36 -85 43 -73 5 7 12 7 25 0 12 -8 16 -22 14 -48 -6 -77 -6
-152 2 -302 l8 -157 -31 -16 -30 -15 -11 63 c-6 34 -11 80 -11 101 0 48 -28
232 -40 260 -5 11 -16 51 -25 90 -9 38 -21 75 -27 82 -10 12 -4 76 9 96 9 14
62 -44 74 -81z m-909 18 c-2 -23 -26 -50 -43 -50 -9 0 -20 60 -13 72 3 5 18 8
32 6 22 -2 27 -8 24 -28z m226 8 c19 2 47 -1 64 -7 21 -8 36 -7 50 0 15 8 31
8 58 0 24 -7 47 -8 66 -2 61 20 119 19 144 -1 34 -28 14 -37 -65 -29 -87 8
-145 -1 -157 -24 -21 -36 -45 -53 -72 -48 -31 6 -37 43 -7 43 21 0 45 23 34
33 -12 12 -89 7 -108 -6 -10 -8 -19 -25 -21 -38 -4 -41 -12 -78 -19 -89 -8
-13 -42 -13 -50 0 -3 6 -13 10 -20 10 -11 0 -13 -10 -8 -42 3 -24 6 -59 6 -78
0 -19 5 -38 10 -41 4 -3 11 -25 14 -48 3 -22 10 -41 14 -41 5 0 8 -3 7 -7 -1
-5 4 -21 10 -36 7 -16 15 -46 18 -68 6 -36 5 -39 -18 -39 -13 0 -29 5 -35 11
-8 8 -17 8 -31 0 -11 -6 -32 -11 -45 -11 -24 0 -24 1 -32 143 -5 78 -9 197 -9
265 -1 138 1 141 69 142 22 0 49 7 60 16 16 12 22 12 30 2 6 -7 25 -12 43 -10z
m4229 0 c-3 -8 -6 -5 -6 6 -1 11 2 17 5 13 3 -3 4 -12 1 -19z m-3316 -23 c1
-17 -18 -17 -25 0 -4 11 -1 15 10 13 8 -2 15 -7 15 -13z m164 -5 c18 -7 18 -8
-7 -15 -15 -4 -46 -4 -70 -1 -24 3 -49 5 -56 5 -7 1 -10 6 -7 11 7 12 111 12
140 0z m3142 -22 c-3 -7 -5 -2 -5 12 0 14 2 19 5 13 2 -7 2 -19 0 -25z m-7457
-52 c0 -30 -5 -46 -15 -50 -12 -4 -15 2 -15 28 0 19 3 41 6 50 12 30 24 16 24
-28z m130 24 c9 -16 8 -22 -5 -26 -8 -3 -22 -3 -30 0 -13 4 -14 10 -5 26 6 11
15 20 20 20 5 0 14 -9 20 -20z m4455 9 c11 -16 -1 -21 -44 -21 -22 0 -43 -3
-46 -8 -9 -14 -74 -361 -89 -475 -8 -55 -12 -126 -9 -157 l5 -58 -63 1 c-35 1
-55 4 -45 6 15 4 6 10 -30 22 l-49 16 -13 120 c-19 181 -3 489 27 512 13 10
13 12 2 13 -12 0 -12 3 -3 13 9 8 65 14 170 18 86 3 162 6 169 7 6 1 15 -3 18
-9z m2862 -21 c-3 -8 -6 -5 -6 6 -1 11 2 17 5 13 3 -3 4 -12 1 -19z m-3437 2
c0 -5 -5 -10 -11 -10 -5 0 -7 5 -4 10 3 6 8 10 11 10 2 0 4 -4 4 -10z m-4055
-10 c3 -5 -1 -10 -9 -10 -9 0 -16 5 -16 10 0 6 4 10 9 10 6 0 13 -4 16 -10z
m1015 0 c0 -5 -10 -10 -22 -9 -22 0 -22 1 -3 9 11 5 21 9 23 9 1 1 2 -3 2 -9z
m6467 -32 c-3 -8 -6 -5 -6 6 -1 11 2 17 5 13 3 -3 4 -12 1 -19z m-3752 -10 c3
-13 4 -53 1 -90 -2 -38 0 -71 5 -74 5 -3 9 -2 8 3 -3 18 1 66 6 62 10 -11 54
-192 60 -252 l7 -64 -35 -22 c-30 -19 -49 -21 -163 -21 -71 0 -133 4 -139 8
-5 4 -10 36 -10 72 -1 118 -11 179 -33 208 -12 14 -22 32 -22 38 0 20 27 35
54 30 33 -6 33 4 0 35 -23 22 -24 24 -8 36 13 9 41 11 100 7 80 -7 135 -1 133
14 -6 37 27 46 36 10z m-3878 -20 c-3 -7 -5 -2 -5 12 0 14 2 19 5 13 2 -7 2
-19 0 -25z m7620 -20 c-3 -8 -6 -5 -6 6 -1 11 2 17 5 13 3 -3 4 -12 1 -19z
m-5230 -13 c8 -22 -6 -33 -17 -15 -13 20 -12 30 0 30 6 0 13 -7 17 -15z m1159
-393 c-5 -7 -23 -12 -40 -10 l-31 3 2 60 c3 84 11 121 28 135 12 10 12 15 0
33 -7 12 -15 49 -17 82 -3 57 -2 60 25 73 15 7 28 18 29 25 1 7 5 -78 8 -188
3 -114 1 -206 -4 -213z m-3519 332 c-9 -9 -28 6 -21 18 4 6 10 6 17 -1 6 -6 8
-13 4 -17z m9458 -4 c4 -6 10 -8 15 -5 13 8 52 -33 47 -48 -6 -17 -89 -10
-103 9 -7 8 -10 24 -7 34 6 21 37 27 48 10z m-3758 -22 c-3 -8 -6 -5 -6 6 -1
11 2 17 5 13 3 -3 4 -12 1 -19z m2845 -155 c14 -29 28 -20 28 18 0 40 12 36
32 -12 20 -48 36 -47 60 4 24 49 15 67 -30 64 -28 -2 -37 2 -40 16 -3 16 7 17
158 12 160 -6 210 -14 210 -35 0 -13 -45 -31 -62 -26 -7 3 -43 7 -80 10 l-68
7 12 -26 c10 -21 9 -29 -5 -43 -14 -13 -21 -14 -36 -5 -15 10 -22 9 -35 -6
-18 -19 -21 -41 -7 -41 6 0 13 5 16 10 3 6 10 10 16 10 11 0 13 -30 2 -31 -5
0 -17 -2 -28 -5 -11 -2 -47 -6 -80 -9 -58 -6 -61 -5 -82 23 -26 35 -32 104
-12 147 l13 30 3 -45 c2 -25 9 -55 15 -67z m-10542 -58 c11 -13 10 -14 -4 -9
-9 3 -16 10 -16 15 0 13 6 11 20 -6z m2147 -21 c-3 -3 -12 -4 -19 -1 -8 3 -5
6 6 6 11 1 17 -2 13 -5z m8383 -64 c9 -5 19 -5 27 1 14 13 99 -2 96 -16 -2 -6
-27 -11 -57 -13 -32 -2 -59 -9 -66 -17 -16 -19 -50 -2 -50 24 0 31 21 40 50
21z m-5158 -32 c-7 -7 -12 -8 -12 -2 0 14 12 26 19 19 2 -3 -1 -11 -7 -17z
m2446 5 c-1 -5 4 -20 10 -34 14 -35 5 -67 -21 -75 -40 -13 -62 50 -31 94 14
20 46 31 42 15z m2802 -110 c-1 -46 -110 -58 -110 -13 0 18 7 20 55 20 30 0
55 -3 55 -7z m-7860 -59 c0 -40 -16 -77 -31 -69 -12 8 -12 71 2 96 14 28 29
14 29 -27z m6616 -31 c-10 -10 -19 5 -10 18 6 11 8 11 12 0 2 -7 1 -15 -2 -18z
m-2748 10 c-10 -2 -28 -2 -40 0 -13 2 -5 4 17 4 22 1 32 -1 23 -4z m-6785 -20
c-7 -2 -19 -2 -25 0 -7 3 -2 5 12 5 14 0 19 -2 13 -5z m-53 -93 c0 -5 -5 -10
-11 -10 -5 0 -7 5 -4 10 3 6 8 10 11 10 2 0 4 -4 4 -10z m2950 -44 c0 -14 -5
-28 -10 -31 -13 -8 -24 20 -16 40 9 24 26 17 26 -9z m-597 -80 c9 -7 17 -16
17 -20 0 -13 -193 -2 -197 11 -3 8 16 13 64 16 37 2 75 4 83 5 8 1 23 -5 33
-12z m-2516 -48 c-3 -8 -6 -5 -6 6 -1 11 2 17 5 13 3 -3 4 -12 1 -19z m-30
-23 c0 -8 -6 -15 -13 -15 -8 0 -11 6 -8 15 4 8 9 15 13 15 4 0 8 -7 8 -15z
m3263 -15 c0 -12 -37 -12 -65 0 -15 7 -10 9 23 9 23 1 42 -3 42 -9z m310 0 c0
-5 -4 -10 -10 -10 -5 0 -10 5 -10 10 0 6 5 10 10 10 6 0 10 -4 10 -10z m-3580
-35 c4 3 11 -2 14 -10 4 -12 0 -14 -21 -9 -18 5 -24 4 -19 -5 4 -6 15 -11 24
-11 12 0 13 -3 4 -12 -8 -8 -16 -5 -31 13 -11 13 -20 29 -21 36 0 16 34 21 38
6 2 -7 7 -11 12 -8z m2570 10 c0 -8 -4 -15 -10 -15 -5 0 -10 7 -10 15 0 8 5
15 10 15 6 0 10 -7 10 -15z m-2633 -9 c-3 -8 3 -23 14 -35 11 -12 18 -22 17
-22 -23 -9 -55 -5 -55 7 0 8 6 13 14 10 19 -8 16 11 -4 23 -11 6 -13 11 -5 11
7 0 10 5 7 10 -3 6 -1 10 5 10 7 0 10 -6 7 -14z m3653 -10 c0 -3 -4 -8 -10
-11 -5 -3 -10 -1 -10 4 0 6 5 11 10 11 6 0 10 -2 10 -4z m6115 -166 c-8 -74
-17 -174 -21 -222 -3 -54 -11 -93 -21 -105 -8 -10 -12 -13 -10 -8 3 6 8 44 11
85 23 273 40 399 52 387 2 -1 -3 -63 -11 -137z m-9635 54 c0 -8 -4 -12 -10 -9
-5 3 -10 13 -10 21 0 8 5 12 10 9 6 -3 10 -13 10 -21z m7870 -237 c0 -193 -2
-220 -21 -273 -12 -32 -23 -77 -24 -99 -1 -22 -5 -54 -10 -71 -6 -27 -4 -33
14 -39 29 -9 27 -48 -4 -102 -14 -23 -28 -43 -31 -43 -7 0 -4 827 3 834 4 3
21 6 40 6 l33 0 0 -213z m66 61 c-6 -128 -18 -200 -31 -186 -6 7 -17 317 -10
327 3 6 16 11 27 11 21 0 21 -2 14 -152z m-164 97 c2 -25 0 -45 -3 -45 -4 0
-7 -43 -7 -96 -2 -120 -12 -139 -13 -23 0 46 -2 112 -3 147 -3 45 0 62 9 62 8
0 14 -17 17 -45z m-603 8 c-7 -10 -14 -19 -15 -21 -1 -2 -12 6 -23 17 l-21 21
36 0 c33 0 35 -2 23 -17z m-6976 -140 c-3 -7 -6 -13 -8 -13 -2 0 -5 6 -8 13
-3 8 1 14 8 14 7 0 11 -6 8 -14z m164 -205 c-3 -8 -6 -5 -6 6 -1 11 2 17 5 13
3 -3 4 -12 1 -19z m55 -49 c-4 -4 -18 -10 -32 -14 -19 -5 -21 -4 -10 4 8 6 11
11 7 11 -4 0 -2 6 5 13 9 10 16 11 24 3 7 -6 9 -14 6 -17z m5023 -9 c-3 -5
-10 -10 -16 -10 -5 0 -9 5 -9 10 0 6 7 10 16 10 8 0 12 -4 9 -10z m4148 -105
c-1 -55 -7 -113 -13 -130 -7 -23 -9 -6 -5 71 3 55 2 103 -2 107 -4 4 -9 19
-10 33 -3 20 0 25 14 22 16 -3 18 -14 16 -103z m-9172 -18 c-10 -9 -11 -8 -5
6 3 10 9 15 12 12 3 -3 0 -11 -7 -18z m5560 -70 c-18 -18 -21 -3 -9 39 l12 39
4 -34 c2 -18 -1 -38 -7 -44z m437 -249 c-3 -7 -22 -14 -44 -15 -22 0 -28 1
-14 4 14 3 29 9 35 14 13 13 27 11 23 -3z m2139 -305 c-3 -10 -5 -4 -5 12 0
17 2 24 5 18 2 -7 2 -21 0 -30z m30 -370 c-2 -16 -4 -5 -4 22 0 28 2 40 4 28
2 -13 2 -35 0 -50z m2752 -196 c24 -8 49 -21 56 -30 7 -9 26 -23 44 -30 31
-13 31 -13 -51 -26 -46 -7 -112 -19 -148 -26 -36 -8 -99 -16 -140 -19 -61 -5
-71 -4 -52 5 12 7 22 16 22 20 0 5 18 12 40 15 25 4 48 16 59 30 13 17 28 23
46 22 21 -2 34 5 49 25 23 31 18 30 75 14z m-2794 -250 c69 -12 70 -13 73 -45
l3 -33 -38 7 c-21 4 -42 13 -47 22 -7 12 -10 12 -17 1 -7 -11 -9 -11 -9 -1 0
7 -4 11 -9 8 -11 -7 -235 -15 -851 -31 -124 -4 -317 -13 -430 -20 -222 -16
-276 -18 -268 -10 7 7 751 64 904 69 71 2 158 9 194 16 65 11 267 26 370 28
30 0 87 -5 125 -11z m1145 -59 c23 -47 23 -48 12 -48 -22 0 -49 40 -45 64 3
14 7 26 9 26 2 0 13 -19 24 -42z m120 -80 c-21 -69 -31 -82 -67 -90 -20 -5
-21 -4 -9 16 8 11 17 36 21 53 4 18 15 39 24 45 10 7 21 24 26 37 4 13 11 19
16 14 5 -5 0 -37 -11 -75z m190 38 c14 -18 14 -19 -8 -7 -12 7 -20 17 -16 22
3 6 7 9 8 7 1 -2 8 -12 16 -22z m-94 -72 c-11 -29 -25 -13 -24 28 l0 42 15
-28 c8 -15 12 -34 9 -42z m359 -31 c-6 -44 -9 -53 -16 -38 -10 25 -11 98 -2
121 13 35 26 -22 18 -83z m-3527 80 c-15 -2 -42 -2 -60 0 -18 2 -6 4 27 4 33
0 48 -2 33 -4z m1872 -3 c0 -5 -4 -10 -10 -10 -5 0 -10 5 -10 10 0 6 5 10 10
10 6 0 10 -4 10 -10z m1808 -90 c14 -19 43 -52 64 -72 21 -21 38 -45 38 -53 0
-8 9 -32 20 -53 l20 -38 -46 -104 c-63 -144 -200 -510 -286 -764 -81 -243
-127 -365 -169 -448 -32 -63 -43 -74 -33 -30 l7 27 -20 -25 c-11 -14 -43 -61
-71 -105 -29 -44 -52 -76 -52 -71 0 5 26 57 59 115 107 193 130 244 199 446
38 110 75 214 82 230 24 58 29 70 56 135 15 36 39 104 55 151 15 47 50 145 78
218 28 73 51 139 51 146 0 7 7 26 15 41 40 77 9 160 -101 269 -45 46 -51 54
-25 39 18 -10 44 -35 59 -54z m182 56 c0 -2 -8 -10 -17 -17 -16 -13 -17 -12
-4 4 13 16 21 21 21 13z m-1415 -65 c-6 -5 -21 -11 -35 -15 -21 -5 -20 -3 5 9
35 17 42 18 30 6z m1363 -121 c-3 -34 -4 -33 -22 23 -15 48 -16 60 -5 74 12
14 15 11 22 -23 4 -22 7 -55 5 -74z m-1431 94 c-3 -3 -12 -4 -19 -1 -8 3 -5 6
6 6 11 1 17 -2 13 -5z m496 -8 c4 -10 1 -13 -8 -9 -8 3 -12 9 -9 14 7 12 11
11 17 -5z m-1460 -43 c-7 -2 -21 -2 -30 0 -10 3 -4 5 12 5 17 0 24 -2 18 -5z
m507 -43 c0 -22 -2 -40 -4 -40 -2 0 -6 18 -8 40 -2 22 0 40 4 40 5 0 8 -18 8
-40z m2110 26 c0 -3 -4 -8 -10 -11 -5 -3 -10 -1 -10 4 0 6 5 11 10 11 6 0 10
-2 10 -4z m-1095 -77 c6 -17 66 -49 128 -69 21 -7 41 -19 44 -29 4 -9 15 -27
25 -40 10 -13 18 -27 18 -31 0 -16 -56 -66 -85 -78 -43 -16 -142 -22 -142 -8
0 6 -12 75 -27 152 -14 78 -26 147 -26 154 0 15 57 -30 65 -51z m-1195 -69
c92 -55 170 -100 174 -100 3 0 7 33 7 73 l2 72 7 -65 c5 -36 10 -119 13 -185
5 -108 5 -111 -3 -36 -5 46 -11 89 -13 95 -3 7 -89 61 -191 120 -102 59 -189
112 -192 117 -17 28 47 -2 196 -91z m2417 28 c-3 -8 -6 -5 -6 6 -1 11 2 17 5
13 3 -3 4 -12 1 -19z m-117 -2 c0 -3 -4 -8 -10 -11 -5 -3 -10 -1 -10 4 0 6 5
11 10 11 6 0 10 -2 10 -4z m-1443 -239 c27 -137 27 -172 -1 -79 -9 31 -33 93
-52 137 l-35 81 23 49 22 50 8 -55 c5 -30 21 -113 35 -183z m1573 198 c0 -8
-2 -15 -4 -15 -2 0 -6 7 -10 15 -3 8 -1 15 4 15 6 0 10 -7 10 -15z m-130 -79
c0 -3 -4 -8 -10 -11 -5 -3 -10 -1 -10 4 0 6 5 11 10 11 6 0 10 -2 10 -4z m10
-116 c0 -5 -5 -10 -11 -10 -5 0 -7 5 -4 10 3 6 8 10 11 10 2 0 4 -4 4 -10z
m-1101 -100 c-1 -37 -2 -41 -9 -20 -12 38 -12 99 0 80 5 -8 9 -35 9 -60z m980
-22 c-1 -37 -2 -39 -9 -18 -12 36 -12 60 0 60 6 0 10 -19 9 -42z m-1956 -222
c3 -29 1 -43 -4 -34 -5 8 -10 71 -13 139 -5 119 -5 120 4 34 5 -49 11 -112 13
-139z m2046 197 c0 -25 -1 -25 -8 -8 -5 11 -7 23 -4 28 8 14 13 7 12 -20z
m-39 -32 c0 -5 -6 -11 -13 -14 -7 -3 -51 -68 -96 -146 -75 -127 -122 -188
-140 -177 -3 2 -34 -35 -69 -82 -35 -48 -86 -119 -115 -159 -29 -39 -67 -97
-86 -128 -18 -31 -35 -55 -37 -53 -12 13 58 179 99 236 58 79 210 262 218 262
4 0 35 35 68 78 137 174 171 210 171 183z m-1351 -113 c0 -35 -2 -39 -9 -21
-8 19 -3 63 6 63 2 0 4 -19 3 -42z m1301 12 c0 -5 -5 -10 -11 -10 -5 0 -7 5
-4 10 3 6 8 10 11 10 2 0 4 -4 4 -10z m-6520 -101 c0 -6 -4 -7 -10 -4 -5 3
-10 11 -10 16 0 6 5 7 10 4 6 -3 10 -11 10 -16z m3663 -20 c21 -37 17 -45 -12
-29 -13 6 -21 21 -21 35 0 34 11 31 33 -6z m926 -284 c12 -154 24 -314 26
-355 3 -41 10 -133 15 -204 6 -71 9 -145 9 -165 -3 -60 -17 76 -33 319 -9 124
-20 275 -25 335 -14 152 -24 361 -18 355 3 -3 15 -131 26 -285z m-64 -311
c-22 -18 -42 -29 -44 -23 -3 11 23 39 54 56 36 21 31 2 -10 -33z m939 -664
c-8 -55 -9 -56 -34 -63 -11 -3 -18 -2 -15 2 2 5 -7 19 -20 31 -36 34 -30 45
10 20 l35 -22 -2 29 c-1 15 -1 42 0 58 3 29 3 29 18 10 10 -14 13 -32 8 -65z"/>
<path d="M4570 7190 c0 -5 5 -10 10 -10 6 0 10 5 10 10 0 6 -4 10 -10 10 -5 0
-10 -4 -10 -10z"/>
<path d="M5824 6926 c-18 -14 -18 -15 9 -25 29 -11 67 0 67 18 0 22 -49 26
-76 7z"/>
<path d="M6226 6724 c-11 -28 5 -62 31 -68 39 -10 26 -39 -20 -44 -20 -2 -37
0 -37 5 0 4 -15 25 -34 46 -32 36 -34 37 -39 16 -6 -22 8 -60 21 -58 18 3 31
-2 52 -21 13 -12 30 -18 37 -16 7 3 13 1 13 -4 0 -6 -8 -10 -17 -11 -31 -1 17
-17 54 -18 l32 -1 -6 88 c-3 48 -11 90 -17 94 -20 14 -64 8 -70 -8z"/>
<path d="M6010 6610 c0 -5 5 -10 11 -10 5 0 7 5 4 10 -3 6 -8 10 -11 10 -2 0
-4 -4 -4 -10z"/>
<path d="M8317 6323 c-12 -11 -8 -23 8 -23 8 0 15 7 15 15 0 16 -12 20 -23 8z"/>
<path d="M2211 7956 c8 -8 551 -34 979 -46 492 -14 1840 -28 2122 -22 201 4
225 6 212 19 -8 8 -23 13 -33 10 -10 -2 -36 -1 -57 3 -31 6 -33 8 -11 9 27 1
36 14 17 26 -5 3 -10 3 -10 -2 0 -9 -1167 -8 -1960 2 -300 4 -543 5 -540 2 5
-6 508 -23 965 -33 160 -3 292 -9 295 -11 5 -6 -628 4 -865 12 -71 3 -229 7
-350 10 -239 6 -437 12 -640 21 -71 3 -127 3 -124 0z"/>
<path d="M14825 7934 c-93 -7 -217 -18 -275 -25 -58 -7 -127 -13 -155 -12
-195 2 -576 13 -651 19 -71 5 -93 3 -100 -7 -4 -8 -13 -151 -19 -319 -10 -284
-10 -308 7 -353 10 -26 18 -63 18 -82 l0 -34 88 -3 c48 -2 120 -2 160 0 67 3
74 5 82 27 6 16 29 34 62 50 29 14 67 33 83 43 26 15 66 17 321 18 l292 1 44
32 c47 34 185 75 203 61 6 -5 11 10 13 41 2 32 -1 48 -9 47 -6 -2 -15 7 -20
20 -5 13 -5 21 -1 19 4 -3 13 1 20 9 13 14 5 19 -20 15 -5 0 -8 4 -8 10 0 5
-5 7 -11 3 -8 -4 -9 0 -4 15 5 16 2 21 -12 22 -10 0 -13 3 -5 6 18 7 15 23 -5
23 -13 0 -15 2 -5 8 7 5 10 16 7 24 -4 9 -2 19 4 23 19 11 12 43 -10 50 -12 4
-17 10 -12 14 15 9 12 41 -4 41 -12 0 -17 23 -14 63 1 9 -3 17 -8 17 -6 0 -11
7 -11 15 0 20 10 19 25 -1 11 -16 12 -16 18 0 4 9 3 15 -2 12 -5 -3 -12 1 -15
10 -3 8 -2 13 3 10 5 -3 11 2 14 13 3 12 14 18 37 19 36 1 54 13 48 33 -2 12
-31 12 -173 3z m122 -449 c0 -8 -4 -12 -9 -9 -5 3 -6 10 -3 15 9 13 12 11 12
-6z"/>
<path d="M12460 7904 c-1 -56 -14 -161 -22 -177 -9 -18 -28 -19 -399 -15 -214
3 -389 1 -389 -4 0 -4 -5 -7 -11 -5 -6 1 -14 -4 -16 -10 -3 -7 0 -13 6 -13 6
0 11 -5 11 -11 0 -5 -4 -8 -8 -5 -13 8 -11 -28 2 -37 6 -5 0 -7 -16 -4 -32 5
-37 -5 -30 -53 4 -34 4 -34 -12 -15 -12 14 -19 16 -22 7 -3 -6 -9 -10 -14 -7
-11 7 -25 -36 -14 -44 5 -3 15 -13 22 -22 11 -14 10 -17 -5 -15 -10 0 -23 8
-30 16 -9 12 -14 12 -24 3 -10 -10 -9 -15 1 -28 10 -12 11 -18 1 -28 -10 -9
-11 -9 -6 4 3 9 -1 21 -9 28 -13 11 -15 8 -11 -24 3 -23 1 -34 -5 -30 -5 3
-10 -2 -11 -12 -2 -62 -26 -113 -52 -113 -21 0 -21 0 -1 -14 11 -8 56 -16 107
-19 76 -5 93 -9 124 -33 52 -40 221 -71 238 -44 11 18 35 10 45 -15 l10 -25
145 0 145 0 0 30 c0 44 34 74 74 65 65 -14 185 -24 307 -24 116 -1 129 1 154
21 43 33 109 40 454 44 194 2 318 7 324 13 7 7 10 77 10 176 0 138 -3 169 -17
183 -11 13 -18 50 -23 133 l-8 114 -210 1 c-246 1 -663 13 -752 21 -57 5 -63
3 -63 -13z m-856 -310 c3 -8 2 -12 -4 -9 -6 3 -10 10 -10 16 0 14 7 11 14 -7z"/>
<path d="M9194 7794 c-60 -93 -171 -311 -162 -319 3 -3 30 46 60 108 30 62 81
153 112 201 31 49 55 91 52 93 -3 3 -31 -34 -62 -83z"/>
<path d="M9183 7822 c-32 -20 -118 -171 -111 -193 2 -7 21 21 42 62 21 40 41
76 45 79 7 6 43 60 39 60 -2 0 -8 -4 -15 -8z"/>
<path d="M8845 7800 c-12 -5 11 -7 62 -6 44 0 79 4 76 8 -6 10 -112 9 -138 -2z"/>
<path d="M9610 7790 c0 -5 20 -10 44 -10 25 0 48 5 51 10 4 6 -13 10 -44 10
-28 0 -51 -4 -51 -10z"/>
<path d="M8757 7733 c-12 -6 -32 -9 -44 -6 -39 9 -164 -99 -230 -198 -41 -62
-18 -58 50 8 103 102 179 127 403 132 13 1 26 13 37 36 9 20 17 37 17 38 0 9
-216 0 -233 -10z"/>
<path d="M6323 7595 c0 -27 2 -38 4 -22 2 15 2 37 0 50 -2 12 -4 0 -4 -28z"/>
<path d="M9051 7598 c-1 -10 -5 -18 -10 -18 -4 0 -17 -21 -27 -47 -11 -27 -20
-51 -22 -55 -2 -5 1 -8 7 -8 6 0 16 12 23 28 6 15 17 42 25 60 8 18 12 38 9
45 -2 7 -5 4 -5 -5z"/>
<path d="M7474 7588 c-18 -27 -34 -61 -34 -70 0 -16 35 -4 36 12 0 8 4 25 8
38 9 27 2 40 -10 20z"/>
<path d="M3870 7577 c3 -3 147 -8 320 -11 173 -4 329 -9 345 -11 17 -2 219 -7
450 -10 231 -3 434 -9 450 -12 20 -3 27 -2 20 5 -6 6 -137 13 -335 16 -179 4
-345 9 -370 11 -70 7 -886 18 -880 12z"/>
<path d="M6904 7566 c-72 -14 -125 -34 -94 -36 70 -6 416 22 428 34 6 7 -28
10 -73 7 -49 -3 -117 -2 -155 3 -19 3 -67 -1 -106 -8z"/>
<path d="M9922 7550 c0 -14 2 -19 5 -12 2 6 2 18 0 25 -3 6 -5 1 -5 -13z"/>
<path d="M5480 7540 c0 -5 5 -10 10 -10 6 0 10 5 10 10 0 6 -4 10 -10 10 -5 0
-10 -4 -10 -10z"/>
<path d="M5558 7533 c18 -2 45 -2 60 0 15 2 0 4 -33 4 -33 0 -45 -2 -27 -4z"/>
<path d="M6515 7511 c66 -4 136 -3 155 0 19 4 -35 6 -120 6 l-155 -1 120 -5z"/>
<path d="M6746 7512 c-4 -6 91 -12 267 -16 149 -4 328 -9 397 -11 74 -3 119
-2 110 4 -8 4 -168 11 -355 15 -187 3 -356 9 -376 12 -20 4 -39 2 -43 -4z"/>
<path d="M11435 7470 c-3 -5 -1 -10 4 -10 6 0 11 5 11 10 0 6 -2 10 -4 10 -3
0 -8 -4 -11 -10z"/>
<path d="M14782 7150 c0 -19 2 -27 5 -17 2 9 2 25 0 35 -3 9 -5 1 -5 -18z"/>
<path d="M2140 7048 c0 -143 5 -160 39 -156 l26 3 3 113 c3 124 -5 152 -43
152 l-25 0 0 -112z"/>
<path d="M11308 7133 c6 -2 18 -2 25 0 6 3 1 5 -13 5 -14 0 -19 -2 -12 -5z"/>
<path d="M13752 7033 c-42 -12 -66 -29 -110 -75 -51 -53 -121 -173 -122 -205
0 -48 -203 -78 -460 -69 -96 3 -210 9 -252 12 l-78 7 0 -202 0 -201 108 0 c59
0 205 7 324 15 153 10 225 12 244 4 20 -7 29 -7 35 2 4 7 15 9 24 5 14 -5 16
-14 11 -49 -9 -56 -9 -74 -1 -127 4 -28 1 -68 -8 -105 l-15 -60 -18 43 c-22
54 -37 58 -172 42 -59 -7 -116 -12 -127 -12 -63 1 -311 -20 -318 -27 -4 -4
-13 -52 -19 -105 -8 -74 -8 -100 1 -109 9 -9 95 -11 340 -9 280 2 329 1 334
-12 8 -20 -11 -147 -24 -163 -16 -18 -58 -16 -163 7 -116 26 -126 26 -118 -2
4 -18 2 -20 -14 -13 -10 4 -55 11 -99 15 -44 4 -120 17 -168 30 -49 12 -90 20
-93 18 -2 -3 69 -24 159 -47 89 -24 172 -50 185 -58 31 -19 60 -79 45 -94 -6
-6 -35 -14 -64 -17 l-54 -7 -6 -77 c-6 -75 -30 -137 -56 -145 -7 -3 -19 10
-29 28 -13 26 -15 50 -11 112 5 78 5 78 -21 88 -19 8 -42 7 -79 -2 -28 -6 -69
-12 -90 -13 -21 -1 -37 -6 -37 -11 9 -68 39 -195 50 -213 14 -22 19 -22 102
-16 48 4 112 8 142 8 77 2 81 5 76 84 -3 37 -1 83 3 102 7 32 10 35 41 32 18
-1 39 -7 45 -12 7 -6 18 -52 24 -103 7 -50 19 -106 26 -124 29 -66 117 -518
165 -843 11 -80 25 -167 31 -195 5 -27 13 -81 18 -120 15 -111 70 -445 82
-495 11 -50 22 -60 62 -60 22 0 31 7 42 32 7 18 12 36 9 39 -2 3 -15 62 -28
130 -33 161 -74 358 -126 594 -22 105 -54 264 -70 355 -17 91 -37 203 -45 250
-23 129 -45 354 -35 364 12 12 342 26 356 15 7 -5 15 -39 19 -74 9 -84 28 -86
24 -2 -4 71 3 87 36 87 55 0 55 0 55 -164 0 -197 -26 -695 -44 -862 -8 -73
-12 -141 -9 -153 6 -23 35 -28 51 -8 5 7 13 104 16 222 9 282 50 926 62 963 2
8 19 12 41 12 21 -1 189 5 373 13 289 12 339 12 363 0 31 -15 47 -48 47 -96 1
-18 16 -90 36 -162 74 -278 124 -504 173 -790 48 -274 50 -276 47 -45 -3 180
-6 219 -29 315 -14 61 -49 220 -77 354 l-52 244 26 53 c14 29 26 59 26 66 0 7
17 60 37 117 26 70 44 106 56 109 15 4 17 21 17 178 0 100 -4 174 -9 174 -19
0 -71 52 -71 71 0 23 22 24 55 3 33 -22 33 -1 0 38 -14 16 -25 41 -25 55 0 22
4 25 25 21 l25 -5 0 482 0 483 -117 21 c-122 22 -523 47 -893 56 -152 4 -194
2 -238 -12z m1038 -144 c47 -2 68 -7 87 -23 31 -27 31 -45 0 -141 -34 -108
-97 -325 -101 -349 -1 -11 -8 -22 -14 -24 -7 -2 -10 -8 -7 -12 3 -5 -4 -15
-16 -23 -11 -8 -16 -16 -10 -18 23 -8 -9 -31 -44 -32 -23 -1 -40 -8 -43 -16
-3 -8 0 -11 5 -8 5 3 10 -3 10 -14 2 -20 -12 -26 -22 -9 -11 17 -23 1 -19 -23
l5 -22 -10 23 c-6 12 -15 22 -21 22 -5 0 -10 4 -10 9 0 5 8 7 19 4 12 -3 20 2
24 16 7 27 -3 34 -19 13 -12 -16 -13 -16 -14 0 0 9 -5 20 -12 24 -7 4 -8 3 -4
-4 4 -7 1 -12 -8 -12 -18 0 -28 15 -31 44 -4 38 -6 41 -16 21 -8 -17 -9 -17
-4 5 2 14 0 39 -4 55 -8 25 -9 26 -10 8 -1 -16 -7 -23 -21 -23 -11 0 -20 5
-20 11 0 5 5 7 10 4 6 -3 10 0 10 8 0 10 -9 14 -30 13 -20 -1 -30 3 -30 12 0
7 4 11 9 7 5 -3 12 -1 16 5 4 6 11 8 16 5 5 -4 9 -1 9 4 0 6 -4 11 -9 11 -5 0
-17 7 -25 16 -12 11 -13 20 -6 34 6 11 9 23 8 27 -4 20 15 62 26 56 6 -4 6 0
-2 9 -10 13 -10 19 2 31 17 17 11 28 -10 20 -10 -4 -12 0 -8 11 3 9 10 14 14
11 5 -3 11 -1 15 5 4 6 11 8 16 4 6 -3 9 2 7 12 -2 11 2 18 10 17 6 -2 12 3
12 11 0 8 -6 17 -12 19 -8 3 -6 6 5 6 9 1 17 8 17 16 0 8 6 15 13 15 9 0 9 2
-1 9 -11 7 -11 9 2 14 9 4 21 17 27 29 12 26 59 54 59 35 0 -7 6 -5 13 5 11
14 61 28 78 21 3 -1 34 -3 69 -4z m-363 -281 c-3 -8 -6 -5 -6 6 -1 11 2 17 5
13 3 -3 4 -12 1 -19z m3 -48 c0 -5 -4 -10 -10 -10 -5 0 -10 5 -10 10 0 6 5 10
10 10 6 0 10 -4 10 -10z m-765 -432 c2 -7 8 -77 13 -155 4 -79 11 -145 15
-149 3 -4 13 -4 22 -1 12 5 15 29 15 137 0 72 5 140 10 151 8 14 21 19 56 19
27 0 46 -5 48 -12 2 -7 15 -65 30 -129 35 -148 42 -159 108 -159 50 0 311 -48
522 -96 60 -14 135 -28 165 -32 39 -5 57 -12 59 -23 2 -12 -8 -18 -45 -22 -26
-3 -104 -14 -173 -23 -84 -11 -203 -17 -365 -18 -226 -1 -564 9 -572 17 -3 4
-7 114 -4 154 0 13 10 24 22 28 21 7 21 11 15 99 -3 50 -9 115 -12 143 -4 36
-3 58 6 68 15 18 59 20 65 3z m999 -3 c-7 -16 51 -247 72 -287 18 -35 18 -89
0 -114 -11 -14 -18 -16 -26 -8 -6 6 -33 95 -60 198 -28 103 -53 192 -56 198
-9 14 15 28 48 28 20 0 26 -4 22 -15z m216 -505 c0 -16 5 -30 10 -30 12 0 13
-60 1 -79 -15 -23 -31 -2 -31 40 0 21 -4 39 -9 39 -6 0 -8 9 -6 20 9 48 35 55
35 10z m-299 -57 l84 -28 8 -59 c5 -32 5 -62 0 -66 -4 -4 -96 -11 -203 -15
-107 -4 -260 -10 -340 -14 -80 -4 -153 -4 -162 1 -20 9 -30 57 -32 137 -1 50
1 56 19 56 16 0 23 -12 36 -60 9 -33 20 -59 24 -58 5 1 14 19 20 40 l11 38
187 0 c103 0 187 1 187 3 0 2 -13 8 -30 13 -20 8 -30 18 -30 31 0 20 4 21 68
15 38 -3 106 -18 153 -34z m-752 -38 c18 -5 20 -12 14 -73 -6 -71 -13 -82 -53
-82 -38 0 -50 18 -50 73 0 41 -3 48 -17 45 -14 -2 -19 -15 -21 -55 -2 -29 -9
-57 -17 -63 -10 -8 -73 -14 -178 -17 -185 -6 -186 -6 -195 72 -2 25 -8 48 -13
51 -4 2 -6 11 -2 20 4 12 18 14 73 8 48 -4 74 -2 93 7 28 15 329 26 366 14z
m1020 -92 c14 -50 14 -65 -3 -88 -19 -27 -42 -6 -51 46 -5 31 -3 45 11 60 24
27 32 24 43 -18z"/>
<path d="M14450 6541 c0 -6 4 -13 10 -16 6 -3 7 1 4 9 -7 18 -14 21 -14 7z"/>
<path d="M14447 6489 c7 -7 15 -10 18 -7 3 3 -2 9 -12 12 -14 6 -15 5 -6 -5z"/>
<path d="M14545 6341 c-3 -5 -1 -12 5 -16 5 -3 10 1 10 9 0 18 -6 21 -15 7z"/>
<path d="M14550 6300 c0 -5 7 -7 15 -4 8 4 15 8 15 10 0 2 -7 4 -15 4 -8 0
-15 -4 -15 -10z"/>
<path d="M13796 5949 c-14 -92 -14 -108 -2 -119 16 -12 46 -3 46 14 -1 18 -28
128 -34 133 -2 3 -7 -10 -10 -28z"/>
<path d="M13633 7023 c-7 -2 -13 -8 -13 -13 0 -10 38 -1 46 11 6 10 -13 11
-33 2z"/>
<path d="M12515 6956 c-42 -18 -52 -54 -65 -241 -15 -210 -5 -436 22 -508 9
-23 8 -30 -6 -40 -15 -11 -17 -43 -14 -352 7 -920 -5 -1310 -52 -1714 -12
-100 6 -144 42 -107 11 10 17 82 27 297 18 428 38 691 61 822 12 72 20 163 20
232 0 90 3 117 16 129 8 9 16 16 17 16 1 0 121 3 267 6 243 6 312 13 264 28
-11 3 -81 21 -157 41 -76 20 -170 52 -210 71 -39 18 -93 37 -119 40 -47 6 -63
24 -36 40 8 5 5 10 -8 14 -15 6 -22 24 -32 76 -54 306 -61 349 -50 355 16 10
51 -2 66 -23 11 -15 27 -18 107 -18 102 0 109 3 111 58 1 37 0 37 -58 18 -107
-34 -138 -39 -165 -27 l-26 12 22 23 22 24 -35 22 c-20 12 -36 25 -36 30 0 12
27 20 70 20 29 0 42 5 50 20 6 11 14 142 19 310 5 160 11 293 14 297 4 3 2 14
-4 24 -8 15 -21 19 -62 19 -29 -1 -65 -7 -82 -14z"/>
<path d="M10721 6931 c-12 -8 -10 -16 12 -50 22 -33 33 -41 57 -41 35 0 39 17
13 58 -28 43 -51 52 -82 33z"/>
<path d="M7736 6860 c6 -6 28 -13 50 -16 l39 -5 -34 15 c-39 19 -71 22 -55 6z"/>
<path d="M7660 6820 c-14 -34 -9 -46 15 -37 16 7 22 67 6 67 -5 0 -14 -14 -21
-30z"/>
<path d="M2325 6780 c3 -36 9 -92 13 -125 l8 -60 5 75 c4 58 1 86 -13 125
l-18 50 5 -65z"/>
<path d="M7756 6833 c-11 -11 -6 -23 9 -23 8 0 15 4 15 9 0 13 -16 22 -24 14z"/>
<path d="M10430 6765 l0 -75 50 0 c45 0 50 2 50 23 0 12 7 30 14 40 8 10 12
26 9 36 -6 24 -55 51 -92 51 l-31 0 0 -75z"/>
<path d="M10660 6792 c-53 -4 -80 -25 -80 -62 0 -33 10 -38 70 -36 37 1 44 4
42 19 -2 9 4 20 13 23 16 7 79 -8 123 -29 19 -9 30 -8 54 6 16 9 40 17 52 17
12 0 31 7 42 15 10 8 28 15 39 15 27 0 6 18 -25 21 -14 1 -34 -2 -45 -7 -35
-15 -144 -7 -225 18 -8 2 -35 3 -60 0z"/>
<path d="M7413 6734 c-7 -19 6 -44 30 -56 55 -27 52 -18 49 -134 -2 -60 -7
-126 -10 -148 -7 -37 -9 -39 -62 -53 -60 -15 -65 -18 -56 -31 12 -20 83 -24
119 -7 38 18 47 44 47 136 0 76 28 240 46 267 13 20 14 26 3 33 -27 17 -59 10
-71 -16 -13 -29 -36 -33 -45 -7 -12 33 -40 42 -50 16z"/>
<path d="M10740 6670 c0 -5 7 -10 15 -10 8 0 15 5 15 10 0 6 -7 10 -15 10 -8
0 -15 -4 -15 -10z"/>
<path d="M7810 6613 c0 -32 -5 -64 -12 -71 -9 -9 -8 -16 5 -30 9 -10 17 -32
17 -48 1 -16 7 -58 14 -94 l13 -65 -5 87 c-5 94 6 130 34 107 10 -8 14 -37 14
-95 0 -66 3 -84 14 -84 23 0 29 17 33 108 6 103 -6 136 -44 121 -25 -9 -43 -5
-43 11 0 14 33 21 41 9 11 -18 42 36 34 59 -3 13 -18 22 -38 25 -18 3 -42 8
-54 12 -22 7 -23 5 -23 -52z"/>
<path d="M7732 6625 c0 -16 2 -22 5 -12 2 9 2 23 0 30 -3 6 -5 -1 -5 -18z"/>
<path d="M10798 6623 c-13 -12 -41 -18 -105 -21 -55 -3 -94 -9 -104 -18 -9 -8
-19 -11 -22 -7 -4 3 -7 1 -7 -6 0 -7 -4 -10 -10 -6 -10 6 -50 -13 -62 -30 -5
-6 -8 -4 -8 5 0 13 -2 13 -9 1 -5 -8 -16 -11 -26 -8 -9 4 -14 3 -10 -3 3 -6 2
-10 -4 -10 -26 0 -20 -44 19 -127 59 -125 134 -310 293 -720 45 -116 82 -211
83 -210 5 7 15 347 20 721 6 368 4 440 -7 447 -19 12 -22 11 -41 -8z"/>
<path d="M7731 6580 c0 -8 4 -22 9 -30 12 -18 12 -2 0 25 -6 13 -9 15 -9 5z"/>
<path d="M7727 6412 c-3 -83 -1 -124 8 -142 7 -14 12 -62 13 -108 0 -64 4 -88
17 -103 25 -26 34 -15 25 28 -9 42 -30 285 -32 375 -1 34 -6 59 -13 62 -9 3
-14 -28 -18 -112z"/>
<path d="M2335 6420 c-7 -12 2 -30 16 -30 5 0 9 9 9 20 0 21 -15 27 -25 10z"/>
<path d="M591 6404 c0 -11 3 -14 6 -6 3 7 2 16 -1 19 -3 4 -6 -2 -5 -13z"/>
<path d="M475 6240 c-3 -5 -1 -10 4 -10 6 0 11 5 11 10 0 6 -2 10 -4 10 -3 0
-8 -4 -11 -10z"/>
<path d="M13285 6240 c-22 -4 -112 -9 -200 -10 -88 -1 -185 -5 -215 -9 l-55
-6 3 -40 c2 -22 5 -41 7 -43 6 -6 540 17 558 24 27 10 20 35 -13 47 -17 6 -29
18 -27 26 3 18 -9 20 -58 11z"/>
<path d="M11774 6232 c-12 -8 -28 -112 -44 -297 -6 -66 -18 -176 -26 -243 -8
-68 -12 -132 -9 -143 5 -16 16 -19 70 -19 35 0 70 -3 78 -6 19 -7 25 28 32
201 4 72 10 191 15 265 6 74 10 161 10 193 l0 57 -57 0 c-32 0 -63 -4 -69 -8z"/>
<path d="M8067 6213 c-14 -13 -6 -24 15 -21 27 4 36 28 11 28 -11 0 -23 -3
-26 -7z"/>
<path d="M11656 6174 c-3 -25 -3 -65 1 -88 l7 -41 7 40 c11 56 11 123 0 129
-4 3 -11 -15 -15 -40z"/>
<path d="M7900 6134 c0 -47 3 -55 18 -52 31 6 28 108 -3 108 -11 0 -15 -13
-15 -56z"/>
<path d="M7968 6151 c-2 -22 0 -51 3 -65 4 -14 4 -26 0 -26 -4 0 -8 -7 -8 -15
0 -21 17 -19 18 3 3 50 1 134 -4 138 -3 3 -7 -13 -9 -35z"/>
<path d="M2590 6145 c-15 -38 -13 -43 16 -37 20 4 24 10 22 30 -4 35 -26 39
-38 7z"/>
<path d="M12145 6149 c-33 -4 -86 -7 -118 -8 -50 -1 -59 -4 -66 -23 -11 -27
-36 -366 -36 -488 l0 -85 37 -3 c42 -4 47 -12 55 -99 3 -35 12 -68 19 -74 7
-5 34 -9 61 -7 l48 3 5 45 c3 25 16 63 29 86 l23 41 62 -4 c60 -5 62 -4 75 23
17 37 26 556 11 585 -9 16 -20 19 -78 17 -37 -2 -94 -6 -127 -9z"/>
<path d="M8062 6125 c0 -16 2 -22 5 -12 2 9 2 23 0 30 -3 6 -5 -1 -5 -18z"/>
<path d="M7465 6080 c-8 -12 20 -24 35 -15 5 3 10 10 10 16 0 12 -37 12 -45
-1z"/>
<path d="M12600 6023 c0 -10 10 -64 22 -121 l21 -103 46 6 c97 13 89 2 93 120
2 80 0 106 -10 110 -8 3 -49 5 -93 5 -69 0 -79 -2 -79 -17z"/>
<path d="M6131 5994 c21 -25 55 -34 107 -27 40 6 43 8 22 14 -14 4 -46 7 -72
8 -27 1 -48 6 -48 11 0 6 -5 10 -11 10 -8 0 -7 -5 2 -16z"/>
<path d="M9088 5833 c-1 -26 -2 -55 -4 -63 -1 -8 -2 -36 -3 -62 -1 -43 -3 -47
-28 -50 l-28 -3 0 -112 c1 -62 4 -116 9 -120 4 -4 15 1 23 12 8 11 32 44 54
74 l39 54 -2 156 -3 156 -27 3 c-27 3 -28 1 -30 -45z"/>
<path d="M5275 5803 c-283 -11 -654 -38 -875 -63 -210 -24 -585 -72 -589 -76
-2 -2 37 -4 88 -4 83 0 212 11 451 40 47 6 114 12 150 14 207 14 451 26 635
31 116 3 266 7 335 10 69 3 233 8 365 11 280 7 286 7 306 19 29 19 -69 24
-431 22 -201 0 -396 -2 -435 -4z"/>
<path d="M10655 5767 c3 -16 17 -86 30 -155 26 -142 65 -320 153 -712 33 -146
65 -299 72 -340 14 -95 29 -154 38 -145 9 8 31 97 38 150 3 21 14 59 25 82
l20 44 -30 102 c-59 199 -80 264 -136 422 -31 88 -61 171 -65 185 -37 110
-152 402 -145 367z"/>
<path d="M236 5761 c-4 -5 3 -7 14 -4 23 6 26 13 6 13 -8 0 -17 -4 -20 -9z"/>
<path d="M9220 5735 c-7 -9 -8 -15 -2 -15 5 0 12 7 16 15 3 8 4 15 2 15 -2 0
-9 -7 -16 -15z"/>
<path d="M9010 5723 c0 -9 8 -13 23 -11 25 3 21 21 -5 23 -10 1 -18 -5 -18
-12z"/>
<path d="M12718 5703 c7 -3 16 -2 19 1 4 3 -2 6 -13 5 -11 0 -14 -3 -6 -6z"/>
<path d="M300 5686 c0 -2 7 -9 15 -16 9 -7 15 -8 15 -2 0 5 -7 12 -15 16 -8 3
-15 4 -15 2z"/>
<path d="M7658 5645 c-3 -3 -2 -25 3 -48 4 -23 9 -89 9 -147 2 -96 3 -102 15
-75 15 36 40 237 32 259 -6 15 -47 22 -59 11z"/>
<path d="M7519 5618 c-1 -35 -5 -85 -13 -179 -8 -78 -7 -87 9 -93 33 -12 40
12 43 154 4 137 4 140 -17 140 -15 0 -21 -7 -22 -22z"/>
<path d="M8434 5623 c-7 -11 -9 -51 -7 -103 6 -131 6 -130 58 -130 l45 0 -1
78 c0 42 -4 97 -7 122 -7 43 -9 45 -42 48 -25 2 -38 -2 -46 -15z"/>
<path d="M390 5606 c7 -7 13 -7 20 0 6 6 3 10 -10 10 -13 0 -16 -4 -10 -10z"/>
<path d="M4817 5523 c-6 -9 11 -285 18 -291 2 -2 34 -1 70 3 l66 7 -7 136 c-3
76 -8 140 -11 145 -2 4 -33 7 -68 7 -35 0 -66 -3 -68 -7z"/>
<path d="M4605 5514 c-38 -7 -632 -44 -697 -44 -63 0 -66 -1 -71 -27 -3 -16
-5 -71 -4 -123 l2 -95 425 0 c234 0 437 3 453 8 26 7 27 10 23 60 -3 28 -8 91
-11 140 l-7 87 -46 -1 c-26 -1 -56 -3 -67 -5z"/>
<path d="M11867 5383 c-4 -3 -7 -21 -7 -39 0 -19 -10 -63 -21 -99 -18 -53 -19
-68 -9 -80 14 -17 38 -19 58 -6 11 6 11 20 3 67 -6 32 -12 83 -13 111 -2 29
-3 53 -4 53 0 0 -4 -3 -7 -7z"/>
<path d="M530 5370 c-13 -8 -13 -11 2 -26 16 -16 17 -16 11 7 -6 22 -5 23 13
9 18 -14 18 -14 5 3 -7 9 -14 17 -15 17 0 0 -8 -5 -16 -10z"/>
<path d="M14691 5215 c-1 -5 -6 -55 -11 -110 -42 -461 -65 -661 -81 -711 -5
-18 -19 -34 -29 -37 -31 -8 -37 -38 -12 -55 16 -10 22 -25 22 -49 0 -37 22
-53 49 -36 11 7 18 32 22 89 20 247 40 379 78 494 l38 116 -20 114 c-16 98
-53 217 -56 185z"/>
<path d="M616 5178 c4 -13 13 -32 20 -43 14 -19 14 -19 14 3 0 12 -4 22 -10
22 -5 0 -10 9 -10 20 0 11 -5 20 -11 20 -6 0 -8 -9 -3 -22z"/>
<path d="M635 5090 c-3 -5 -5 -10 -3 -11 29 -7 36 -5 31 7 -6 16 -19 18 -28 4z"/>
<path d="M650 5045 c0 -7 30 -13 34 -7 3 4 -4 9 -15 9 -10 1 -19 0 -19 -2z"/>
<path d="M2230 5031 c-15 -29 -12 -77 5 -91 20 -17 215 -6 227 13 4 6 6 28 4
47 -3 19 -5 38 -5 43 -1 4 -50 7 -111 7 -98 0 -110 -2 -120 -19z"/>
<path d="M1202 5009 c-20 -8 -23 -15 -21 -62 1 -30 -1 -59 -5 -66 -4 -6 0 -23
8 -36 26 -39 66 -309 66 -440 0 -54 1 -55 28 -55 16 0 36 6 46 13 16 12 16 25
6 182 -13 197 -12 257 7 303 10 23 11 38 4 46 -6 7 -13 32 -17 56 -4 25 -11
51 -17 58 -11 14 -71 15 -105 1z"/>
<path d="M2521 5004 c0 -11 3 -14 6 -6 3 7 2 16 -1 19 -3 4 -6 -2 -5 -13z"/>
<path d="M2096 4984 c-4 -14 -17 -36 -30 -49 l-23 -23 37 -11 c47 -14 63 -14
95 1 32 15 33 47 0 82 -32 35 -71 35 -79 0z"/>
<path d="M2510 4951 c0 -6 5 -13 10 -16 6 -3 10 1 10 9 0 9 -4 16 -10 16 -5 0
-10 -4 -10 -9z"/>
<path d="M2508 4875 c-2 -25 0 -45 4 -45 5 0 8 20 8 45 0 25 -2 45 -4 45 -2 0
-6 -20 -8 -45z"/>
<path d="M7742 4871 c4 -13 18 -16 19 -4 0 4 -5 9 -11 12 -7 2 -11 -2 -8 -8z"/>
<path d="M2498 4775 c-2 -25 0 -45 4 -45 5 0 8 20 8 45 0 25 -2 45 -4 45 -2 0
-6 -20 -8 -45z"/>
<path d="M3830 4789 c-216 -11 -310 -41 -443 -143 -34 -26 -107 -115 -107
-130 0 -3 33 19 73 49 77 59 167 111 167 97 0 -5 -19 -23 -42 -40 -56 -41
-181 -164 -239 -236 -31 -37 -52 -76 -63 -114 -18 -66 -40 -306 -131 -1462
-49 -621 -166 -1989 -186 -2175 -6 -55 -13 -137 -16 -182 -5 -77 -4 -83 14
-83 53 0 171 86 134 98 -6 2 -11 10 -11 18 0 8 -7 14 -16 14 -18 0 -19 -25 11
320 8 91 17 201 20 245 3 44 8 103 10 130 7 74 26 330 31 405 2 36 6 85 9 110
3 25 7 74 10 110 40 533 61 789 80 945 8 66 17 161 20 210 3 50 8 104 11 120
2 17 11 111 19 211 13 165 28 280 70 544 8 52 17 127 20 165 11 137 15 162 31
201 59 143 199 274 352 327 51 18 97 21 437 28 209 5 641 15 960 24 648 17
801 18 769 5 -12 -4 -187 -11 -390 -15 -203 -4 -379 -8 -390 -10 -12 -2 -277
-6 -590 -10 -692 -8 -693 -8 -723 -24 l-24 -13 24 -19 c20 -15 37 -18 99 -14
41 2 174 7 295 10 121 3 533 14 915 25 382 10 811 22 953 26 141 3 257 10 257
15 0 5 -1 9 -2 9 -2 0 -21 7 -43 15 -27 10 -33 14 -18 15 37 0 129 -39 175
-75 39 -32 49 -35 111 -35 37 0 67 4 67 8 0 5 -33 40 -72 79 -91 88 -215 149
-372 183 -46 10 -690 15 -816 6 -30 -2 -287 -7 -570 -11 -690 -8 -897 -14
-947 -24 -24 -4 -43 -5 -43 -1 0 22 233 40 550 41 157 1 330 4 385 8 124 9
-650 8 -825 0z m-161 -63 c-2 -2 -28 -13 -58 -25 -30 -11 -50 -16 -45 -11 5 5
27 16 49 24 40 15 62 19 54 12z m2461 -116 c-20 -13 -107 -13 -115 0 -4 6 19
10 62 10 48 0 63 -3 53 -10z"/>
<path d="M2486 4624 c-4 -47 -5 -88 -3 -91 3 -2 8 34 12 82 4 47 5 88 3 91 -3
2 -8 -34 -12 -82z"/>
<path d="M8520 4651 c0 -6 4 -12 8 -15 5 -3 9 1 9 9 0 8 -4 15 -9 15 -4 0 -8
-4 -8 -9z"/>
<path d="M8380 4600 c0 -19 3 -21 12 -12 9 9 9 15 0 24 -9 9 -12 7 -12 -12z"/>
<path d="M5813 4529 c-23 -7 -33 -16 -33 -29 0 -17 7 -20 45 -20 43 0 45 1 45
30 0 32 -5 34 -57 19z"/>
<path d="M6102 4533 c-16 -3 -22 -9 -18 -20 3 -8 6 -17 6 -19 0 -7 76 -4 83 3
9 8 -23 43 -37 42 -6 -1 -21 -4 -34 -6z"/>
<path d="M6240 4532 c0 -20 28 -32 74 -32 48 0 49 0 31 20 -13 14 -31 20 -62
20 -23 0 -43 -4 -43 -8z"/>
<path d="M11128 4444 l-3 -84 45 45 c36 36 42 47 32 57 -10 10 -14 10 -21 0
-7 -11 -9 -11 -14 2 -3 8 -1 16 4 18 6 2 -1 13 -15 25 l-25 22 -3 -85z"/>
<path d="M3656 4512 c-8 -13 -10 -308 -2 -321 9 -13 62 -6 84 12 10 8 7 16
-13 37 -24 25 -25 31 -25 153 0 119 -1 127 -19 127 -11 0 -22 -4 -25 -8z"/>
<path d="M2469 4463 c0 -27 -2 -57 -4 -68 -2 -11 -8 -81 -15 -155 -6 -74 -13
-155 -15 -180 -2 -25 -7 -76 -10 -115 -7 -84 -15 -161 -20 -187 -2 -10 -7 -60
-10 -111 -3 -51 -8 -108 -10 -127 -6 -39 -11 -95 -20 -215 -4 -44 -8 -82 -10
-85 -2 -3 -6 -57 -10 -120 -6 -113 -10 -166 -20 -245 -10 -94 -17 -165 -30
-310 -3 -33 -9 -103 -15 -155 -5 -52 -12 -126 -15 -165 -3 -38 -8 -77 -10 -85
-2 -8 -6 -53 -9 -100 -4 -47 -11 -130 -16 -185 -6 -55 -19 -206 -30 -335 -11
-129 -24 -273 -30 -320 -6 -47 -15 -146 -21 -220 -5 -74 -12 -148 -14 -165 -2
-16 -11 -100 -20 -185 -8 -85 -19 -191 -25 -235 -5 -44 -14 -132 -21 -195 -7
-63 -18 -123 -24 -133 -7 -9 -10 -29 -7 -42 4 -22 10 -25 43 -25 l39 0 0 68
c0 89 58 815 115 1452 8 91 19 226 25 300 5 74 14 185 20 245 6 61 24 270 40
465 27 309 48 550 66 750 2 30 7 73 9 95 9 74 14 129 20 220 3 50 10 142 15
205 5 63 12 153 15 200 3 47 8 101 10 120 3 19 7 71 11 115 16 207 18 275 12
275 -5 0 -8 -21 -9 -47z"/>
<path d="M4818 4403 c6 -2 18 -2 25 0 6 3 1 5 -13 5 -14 0 -19 -2 -12 -5z"/>
<path d="M8013 4394 c-18 -8 -33 -16 -33 -19 0 -4 49 -112 71 -157 5 -10 9
-24 9 -32 0 -7 6 -19 14 -25 18 -15 29 -97 18 -136 -5 -20 -19 -35 -40 -45
-17 -8 -32 -21 -32 -27 0 -7 -10 -13 -22 -13 -12 0 -18 -3 -15 -7 4 -3 0 -15
-9 -24 -16 -17 -15 -19 9 -28 80 -31 259 7 288 60 13 25 18 136 7 168 -5 13
-10 43 -13 66 -2 23 -11 61 -19 86 -8 24 -17 59 -21 77 -4 18 -15 37 -26 42
-10 6 -19 9 -19 6 0 -2 -17 0 -37 5 -75 16 -99 17 -130 3z m248 -397 c-10 -9
-11 -8 -5 6 3 10 9 15 12 12 3 -3 0 -11 -7 -18z m-191 -98 c0 -5 -4 -9 -10 -9
-5 0 -10 7 -10 16 0 8 5 12 10 9 6 -3 10 -10 10 -16z"/>
<path d="M1 4313 c0 -34 4 -65 9 -68 12 -7 12 34 1 90 -8 38 -9 37 -10 -22z"/>
<path d="M11018 4266 c-1 -35 -1 -77 2 -92 5 -24 7 -19 13 26 9 75 9 118 -2
124 -5 4 -11 -23 -13 -58z"/>
<path d="M6845 4200 c-3 -4 -14 -6 -24 -3 -30 8 -39 -15 -61 -152 -5 -33 -12
-76 -16 -97 -5 -27 -1 -47 17 -82 25 -51 41 -59 113 -57 39 0 55 6 69 22 22
27 21 35 -3 59 -18 18 -20 29 -15 73 12 106 7 176 -14 206 -21 29 -57 46 -66
31z"/>
<path d="M7098 4172 c-23 -4 -23 -18 -2 -26 20 -8 27 -3 22 16 -1 7 -11 12
-20 10z"/>
<path d="M7066 4107 c-27 -65 -35 -99 -31 -140 6 -63 13 -109 18 -113 7 -7 57
37 52 46 -3 4 1 13 9 19 9 8 14 37 15 88 1 42 3 79 6 81 9 9 -15 40 -35 45
-17 4 -24 -1 -34 -26z"/>
<path d="M0 3946 l0 -138 60 4 c39 3 66 11 80 23 25 23 26 55 2 55 -26 0 -52
32 -101 120 l-41 75 0 -139z"/>
<path d="M6560 4072 c6 -2 7 -8 4 -13 -3 -6 0 -16 6 -24 10 -13 8 -15 -14 -15
-16 0 -25 -4 -21 -10 3 -5 -2 -10 -13 -10 -35 0 -54 -74 -31 -122 17 -39 115
-66 167 -47 28 11 28 20 -3 51 -25 26 -27 55 -10 164 l5 30 -50 0 c-27 -1 -45
-3 -40 -4z"/>
<path d="M3870 3995 c-7 -9 -11 -17 -9 -20 3 -2 10 5 17 15 14 24 10 26 -8 5z"/>
<path d="M3840 3940 c-6 -11 -8 -20 -6 -20 3 0 10 9 16 20 6 11 8 20 6 20 -3
0 -10 -9 -16 -20z"/>
<path d="M5430 3925 c0 -3 9 -14 20 -25 25 -25 70 -44 70 -30 0 5 -11 12 -25
16 -14 3 -25 10 -25 15 0 4 -9 13 -20 19 -11 6 -20 8 -20 5z"/>
<path d="M6268 3882 c6 -2 9 -9 6 -16 -6 -16 48 -27 68 -14 10 6 10 8 1 8 -7
0 -13 6 -13 14 0 10 -11 14 -36 13 -20 -1 -32 -3 -26 -5z"/>
<path d="M3792 3812 c4 -12 3 -20 -2 -17 -4 3 -8 -5 -9 -18 -2 -46 -6 -65 -12
-61 -7 4 -29 -81 -29 -110 0 -7 11 -23 25 -36 13 -13 31 -46 40 -74 8 -28 26
-69 39 -91 25 -40 25 -40 26 -12 0 16 -14 60 -31 99 -17 38 -28 72 -26 75 3 2
11 -5 17 -17 22 -41 21 -12 -2 34 -17 35 -28 46 -45 46 -28 0 -32 34 -5 49 9
6 13 11 8 11 -5 0 -4 6 2 13 18 21 26 113 12 122 -10 6 -12 2 -8 -13z"/>
<path d="M5703 3593 c9 -2 25 -2 35 0 9 3 1 5 -18 5 -19 0 -27 -2 -17 -5z"/>
<path d="M3716 3469 c-3 -19 -7 -74 -10 -124 -3 -49 -14 -214 -25 -365 -11
-151 -22 -322 -26 -380 -3 -58 -10 -166 -15 -240 -6 -74 -15 -207 -20 -295 -6
-88 -13 -187 -15 -220 -2 -33 -7 -109 -10 -170 -3 -60 -10 -157 -15 -215 -5
-58 -12 -145 -15 -195 -8 -127 -15 -231 -20 -295 -12 -148 -27 -350 -45 -595
-11 -148 -22 -294 -25 -323 l-5 -52 94 0 95 0 5 53 c6 52 16 177 36 457 6 80
12 170 15 200 5 58 18 229 35 465 5 77 12 167 15 200 12 150 26 348 40 560 8
127 17 250 20 275 2 25 9 135 15 245 13 254 33 514 55 717 3 30 -7 60 -51 149
-30 62 -70 128 -89 147 l-34 35 -5 -34z"/>
<path d="M3926 3278 c12 -40 33 -83 34 -70 0 22 22 13 56 -24 19 -19 34 -32
34 -28 0 8 -70 103 -95 127 -23 24 -38 21 -29 -5z"/>
<path d="M7426 3199 c-49 -4 -92 -11 -97 -16 -4 -4 -19 -50 -33 -102 -26 -97
-50 -145 -68 -139 -6 2 -19 24 -29 48 l-18 45 0 -55 c0 -30 4 -107 8 -170 10
-127 -11 -66 206 -580 333 -786 365 -866 372 -923 3 -26 10 -50 14 -53 15 -9
93 17 118 39 40 37 42 59 10 87 -15 14 -41 57 -57 95 -62 147 -174 403 -207
473 -19 39 -35 75 -35 78 0 3 -32 78 -71 167 -39 89 -93 214 -119 277 -26 63
-71 168 -99 233 -28 65 -51 122 -51 127 0 13 68 13 144 0 33 -5 62 -7 64 -5 6
6 101 355 102 373 0 13 -17 14 -154 1z"/>
<path d="M6987 3160 c-32 -4 -60 -10 -63 -13 -4 -4 7 -232 21 -417 31 -409 46
-628 55 -800 6 -113 15 -266 20 -340 6 -74 9 -171 9 -215 l-2 -80 -8 110 c-10
127 -37 523 -44 640 -3 44 -7 116 -10 160 -3 44 -10 159 -15 255 -6 96 -17
274 -25 395 -8 121 -15 237 -15 259 l0 39 -62 -7 c-35 -4 -67 -11 -72 -16 -5
-5 -4 -60 3 -132 47 -487 86 -923 116 -1288 19 -234 40 -485 46 -558 6 -74 8
-152 5 -174 -5 -30 -3 -45 10 -59 11 -13 13 -22 6 -35 -6 -11 -6 -28 0 -47 10
-26 14 -28 44 -23 27 6 34 3 39 -14 8 -26 3 -32 -38 -46 -24 -8 -33 -18 -35
-37 -5 -38 14 -41 105 -23 149 31 151 32 174 82 19 40 20 46 6 62 -16 19 -24
63 -32 197 -3 50 -10 144 -15 210 -10 122 -12 152 -30 425 -6 85 -12 173 -15
195 -2 22 -7 85 -10 140 -3 55 -8 134 -10 175 -19 287 -36 586 -45 765 -11
204 -16 227 -45 224 -5 -1 -36 -5 -68 -9z"/>
<path d="M6692 3121 c-11 -7 -6 -26 23 -95 21 -48 40 -85 42 -83 2 3 1 46 -3
96 -6 84 -9 91 -28 91 -12 0 -27 -4 -34 -9z"/>
<path d="M5912 3050 c-17 -7 -21 -15 -18 -32 3 -13 8 -68 11 -123 9 -144 16
-249 24 -337 5 -50 2 -99 -6 -140 -12 -57 -11 -64 5 -76 19 -14 88 -7 111 11
28 24 32 56 9 87 -16 22 -23 48 -25 92 -7 135 -34 484 -39 506 -5 24 -31 28
-72 12z"/>
<path d="M2185 1890 c-7 -12 2 -30 16 -30 5 0 9 9 9 20 0 21 -15 27 -25 10z"/>
<path d="M10636 1713 c-8 -135 -12 -163 -26 -163 -6 0 -10 41 -10 101 0 55 -3
98 -8 96 -4 -3 -6 -47 -5 -99 2 -58 -3 -115 -12 -152 -17 -64 -13 -96 12 -96
16 0 16 -3 -6 -93 -6 -27 -6 -37 2 -34 6 2 15 18 19 35 12 45 28 40 28 -8 0
-22 5 -40 11 -40 6 0 10 24 8 65 -1 36 1 68 4 71 10 11 -5 58 -22 70 -13 10
-13 16 -2 40 12 27 29 324 18 324 -3 0 -8 -53 -11 -117z"/>
<path d="M10166 1233 c-4 -9 -2 -21 4 -27 7 -7 10 -2 10 17 0 31 -5 34 -14 10z"/>
<path d="M9700 1181 c0 -10 19 -25 25 -20 1 2 -3 10 -11 17 -8 7 -14 8 -14 3z"/>
</g>
</svg>
